<?xml version="1.0" encoding="UTF-8" standalone="no"?>
<!-- Created with Inkscape (http://www.inkscape.org/) -->

<svg
   width="20.969589mm"
   height="13.832004mm"
   viewBox="0 0 20.969589 13.832004"
   version="1.1"
   id="svg5"
   inkscape:version="1.1.1 (3bf5ae0d25, 2021-09-20)"
   sodipodi:docname="FjordSysConceptIcons.svg"
   xmlns:inkscape="http://www.inkscape.org/namespaces/inkscape"
   xmlns:sodipodi="http://sodipodi.sourceforge.net/DTD/sodipodi-0.dtd"
   xmlns="http://www.w3.org/2000/svg"
   xmlns:svg="http://www.w3.org/2000/svg">
  <sodipodi:namedview
     id="namedview7"
     pagecolor="#ffffff"
     bordercolor="#111111"
     borderopacity="1"
     inkscape:pageshadow="0"
     inkscape:pageopacity="0"
     inkscape:pagecheckerboard="1"
     inkscape:document-units="px"
     showgrid="false"
     inkscape:zoom="1.0824912"
     inkscape:cx="162.58793"
     inkscape:cy="357.97058"
     inkscape:window-width="2400"
     inkscape:window-height="1261"
     inkscape:window-x="2391"
     inkscape:window-y="-8"
     inkscape:window-maximized="1"
     inkscape:current-layer="layer3"
     showguides="true"
     inkscape:showpageshadow="2"
     inkscape:deskcolor="#d1d1d1">
    <inkscape:grid
       type="xygrid"
       id="grid3135"
       originx="-199.92482"
       originy="-70.830517"
       spacingy="1"
       spacingx="1"
       units="px"
       visible="false" />
  </sodipodi:namedview>
  <defs
     id="defs2">
    <marker
       style="overflow:visible"
       id="Arrow1Send-28"
       refX="0"
       refY="0"
       orient="auto"
       inkscape:stockid="Arrow1Send"
       inkscape:isstock="true">
      <path
         transform="matrix(-0.2,0,0,-0.2,-1.2,0)"
         style="fill:context-stroke;fill-rule:evenodd;stroke:context-stroke;stroke-width:1pt"
         d="M 0,0 5,-5 -12.5,0 5,5 Z"
         id="path7602-9" />
    </marker>
  </defs>
  <g
     inkscape:groupmode="layer"
     id="layer3"
     inkscape:label="TextBoxes"
     style="display:inline"
     transform="translate(-52.896777,-18.740574)">
    <path
       style="display:inline;fill:none;fill-opacity:1;stroke:#3d93bd;stroke-width:1.76389;stroke-linecap:butt;stroke-linejoin:miter;stroke-miterlimit:4;stroke-dasharray:none;stroke-opacity:1;marker-end:url(#Arrow1Send-28)"
       d="m 62.755936,9 c 0,6.669126 0,6.669126 0,6.669126"
       id="path3484-23"
       inkscape:export-filename="C:\Users\mke081\Documents\TheseTRADMOD\WP2_Grazing\03_PAPERS_3.4_NBRSurvey\07_SurveyDataAnalyses\NBRSurvey_TradMod\illustrations\NBR_CancorResults.png"
       inkscape:export-xdpi="122.52628"
       inkscape:export-ydpi="122.52628" />
    <g
       id="g991-6-5"
       transform="matrix(0.53463596,0,0,0.53463596,-5.4765909,-63.856605)"
       inkscape:export-filename="C:\Users\mke081\Documents\TheseTRADMOD\WP2_Grazing\03_PAPERS_3.4_NBRSurvey\07_SurveyDataAnalyses\NBRSurvey_TradMod\illustrations\NBR_CancorResults.png"
       inkscape:export-xdpi="122.52628"
       inkscape:export-ydpi="122.52628"
       style="display:inline">
      <rect
         style="fill:#f2f2f2;fill-opacity:1;fill-rule:evenodd;stroke:#73a923;stroke-width:1.96505;stroke-linejoin:round;stroke-opacity:1"
         id="rect846-3-0-7"
         width="37.257133"
         height="23.906767"
         x="110.16592"
         y="155.4749"
         ry="2.185512e-14" />
      <path
         style="fill:#f2f2f2;fill-opacity:1;stroke:#73a923;stroke-width:1.465;stroke-linecap:butt;stroke-linejoin:miter;stroke-miterlimit:4;stroke-dasharray:none;stroke-opacity:1"
         d="m 127.23824,161.66189 5.87683,3.77754 c 3.13403,2.30894 6.5241,5.28817 10.26424,13.5561 h -13.03033 c -4.22825,0.0229 -15.15875,-1.63897 -12.74241,-5.96113 6.63436,-11.4364 1.15646,-8.27372 -7.58759,-11.38978 l 17.21926,0.0173"
         id="path16320-2-6"
         sodipodi:nodetypes="ccccccc" />
      <path
         style="fill:#73a923;fill-opacity:1;stroke:none;stroke-width:0.13548px;stroke-linecap:butt;stroke-linejoin:miter;stroke-opacity:1"
         d="m 135.43199,159.20386 -1.32273,1.49832 h 0.52675 l -0.94816,1.4749 h 0.51505 l -0.81939,1.73243 1.67975,0.12289 0.0936,1.45735 0.57943,-0.0117 0.0702,-1.45149 1.70316,-0.13462 -0.83109,-1.60952 0.50919,-0.0235 -0.98912,-1.55099 0.57357,-0.0117 z"
         id="path33059-2-3-7"
         sodipodi:nodetypes="cccccccccccccccc" />
      <path
         style="fill:#73a923;fill-opacity:1;stroke:none;stroke-width:0.13548px;stroke-linecap:butt;stroke-linejoin:miter;stroke-opacity:1"
         d="m 141.71659,158.55842 -1.32273,1.49832 h 0.52675 l -0.94816,1.4749 h 0.51505 l -0.81939,1.73243 1.67975,0.12289 0.0936,1.45735 0.57943,-0.0117 0.0702,-1.45149 1.70316,-0.13462 -0.83109,-1.60952 0.50919,-0.0235 -0.98912,-1.55099 0.57357,-0.0117 z"
         id="path33059-2-26-2-3"
         sodipodi:nodetypes="cccccccccccccccc" />
      <path
         style="fill:#73a923;fill-opacity:1;stroke:none;stroke-width:0.13548px;stroke-linecap:butt;stroke-linejoin:miter;stroke-opacity:1"
         d="m 138.90147,161.76 -1.32273,1.49832 h 0.52675 l -0.94816,1.4749 h 0.51505 l -0.81939,1.73243 1.67975,0.12289 0.0936,1.45735 0.57943,-0.0117 0.0702,-1.45149 1.70316,-0.13462 -0.83109,-1.60952 0.50919,-0.0235 -0.98912,-1.55099 0.57357,-0.0117 z"
         id="path33059-2-0-3-0"
         sodipodi:nodetypes="cccccccccccccccc" />
      <path
         style="fill:#73a923;fill-opacity:1;stroke:none;stroke-width:0.13548px;stroke-linecap:butt;stroke-linejoin:miter;stroke-opacity:1"
         d="m 143.34362,163.33429 -1.32273,1.49832 h 0.52675 l -0.94816,1.4749 h 0.51505 l -0.81939,1.73243 1.67975,0.12289 0.0936,1.45735 0.57943,-0.0117 0.0702,-1.45149 1.70316,-0.13462 -0.83109,-1.60952 0.50919,-0.0235 -0.98912,-1.55099 0.57357,-0.0117 z"
         id="path33059-2-0-5-2-7"
         sodipodi:nodetypes="cccccccccccccccc" />
      <path
         style="fill:#73a923;fill-opacity:1;stroke:none;stroke-width:0.13548px;stroke-linecap:butt;stroke-linejoin:miter;stroke-opacity:1"
         d="m 144.80094,157.07757 -1.32273,1.49832 h 0.52675 l -0.94816,1.4749 h 0.51505 l -0.81939,1.73243 1.67975,0.12289 0.0936,1.45735 0.57943,-0.0117 0.0702,-1.45149 1.70316,-0.13462 -0.83109,-1.60952 0.50919,-0.0235 -0.98912,-1.55099 0.57357,-0.0117 z"
         id="path33059-2-00-9-2"
         sodipodi:nodetypes="cccccccccccccccc" />
      <path
         style="fill:#73a923;fill-opacity:1;stroke:none;stroke-width:0.13548px;stroke-linecap:butt;stroke-linejoin:miter;stroke-opacity:1"
         d="m 138.40984,156.84356 -1.32273,1.49832 h 0.52675 l -0.94816,1.4749 h 0.51505 l -0.81939,1.73243 1.67975,0.12289 0.0936,1.45735 0.57943,-0.0117 0.0702,-1.45149 1.70316,-0.13462 -0.83109,-1.60952 0.50919,-0.0235 -0.98912,-1.55099 0.57357,-0.0117 z"
         id="path33059-2-8-4-1"
         sodipodi:nodetypes="cccccccccccccccc" />
      <path
         style="fill:#73a923;fill-opacity:1;stroke:none;stroke-width:0.13548px;stroke-linecap:butt;stroke-linejoin:miter;stroke-opacity:1"
         d="m 132.80417,156.19572 -1.32273,1.49832 h 0.52675 l -0.94816,1.4749 h 0.51505 l -0.81939,1.73243 1.67975,0.12289 0.0936,1.45735 0.57943,-0.0117 0.0702,-1.45149 1.70316,-0.13462 -0.83109,-1.60952 0.50919,-0.0235 -0.98912,-1.55099 0.57357,-0.0117 z"
         id="path33059-2-2-7-4"
         sodipodi:nodetypes="cccccccccccccccc" />
      <path
         style="fill:none;stroke:#73a923;stroke-width:1.465;stroke-linecap:butt;stroke-linejoin:miter;stroke-miterlimit:4;stroke-dasharray:none;stroke-opacity:1"
         d="m 127.23824,161.66189 h 19.61582"
         id="path37069-19-8" />
      <path
         style="fill:none;stroke:#73a923;stroke-width:1.465;stroke-linecap:butt;stroke-linejoin:miter;stroke-miterlimit:4;stroke-dasharray:none;stroke-opacity:1"
         d="m 139.44735,171.72598 h 8.13824"
         id="path38838-4-6" />
      <path
         style="fill:none;stroke:#73a923;stroke-width:0.865;stroke-linecap:butt;stroke-linejoin:miter;stroke-miterlimit:4;stroke-dasharray:none;stroke-opacity:1"
         d="m 113.29189,163.09036 c -1.05112,0.93749 -2.10224,2.32759 -2.66842,3.49139"
         id="path40370-0-2"
         sodipodi:nodetypes="cc" />
      <path
         style="fill:none;stroke:#73a923;stroke-width:0.865;stroke-linecap:butt;stroke-linejoin:miter;stroke-miterlimit:4;stroke-dasharray:none;stroke-opacity:1"
         d="m 117.04897,174.38164 c -0.68744,1.22929 -1.22712,2.88639 -1.38231,4.17127"
         id="path40370-5-5-2"
         sodipodi:nodetypes="cc" />
      <path
         style="fill:none;stroke:#73a923;stroke-width:0.865;stroke-linecap:butt;stroke-linejoin:miter;stroke-miterlimit:4;stroke-dasharray:none;stroke-opacity:1"
         d="m 118.96179,175.79634 c -0.54582,1.29839 -0.89702,3.0054 -0.90771,4.29958"
         id="path40370-5-9-9-5"
         sodipodi:nodetypes="cc" />
      <path
         style="fill:none;stroke:#73a923;stroke-width:0.865;stroke-linecap:butt;stroke-linejoin:miter;stroke-miterlimit:4;stroke-dasharray:none;stroke-opacity:1"
         d="m 115.59369,163.57759 c -2.86952,2.70477 -2.96675,3.54457 -5.0325,7.38089"
         id="path40372-6-4"
         sodipodi:nodetypes="cc" />
      <path
         style="fill:none;stroke:#73a923;stroke-width:0.865;stroke-linecap:butt;stroke-linejoin:miter;stroke-miterlimit:4;stroke-dasharray:none;stroke-opacity:1"
         d="m 118.19568,164.20019 c -3.07127,2.57556 -5.46363,6.31498 -7.40339,11.99414"
         id="path44249-4-9"
         sodipodi:nodetypes="cc" />
      <path
         style="fill:none;stroke:#73a923;stroke-width:0.865;stroke-linecap:butt;stroke-linejoin:miter;stroke-miterlimit:4;stroke-dasharray:none;stroke-opacity:1"
         d="m 120.4264,164.84677 c -4.54765,4.69851 -6.34731,9.55867 -8.01765,14.96843"
         id="path46269-6-8"
         sodipodi:nodetypes="cc" />
    </g>
    <path
       style="display:inline;opacity:0.4;fill:none;stroke:#73a923;stroke-width:0.352778;stroke-linecap:butt;stroke-linejoin:miter;stroke-miterlimit:4;stroke-dasharray:0.352778, 0.352778;stroke-dashoffset:0;stroke-opacity:1"
       d="m 72.878089,21.178683 c 42.805701,-0.0023 42.805701,-0.0023 42.805701,-0.0023"
       id="path1142-1-9-1-0"
       sodipodi:nodetypes="cc"
       inkscape:export-filename="C:\Users\mke081\Documents\TheseTRADMOD\WP2_Grazing\03_PAPERS_3.4_NBRSurvey\07_SurveyDataAnalyses\NBRSurvey_TradMod\illustrations\NBR_CancorResults.png"
       inkscape:export-xdpi="122.52628"
       inkscape:export-ydpi="122.52628" />
  </g>
</svg>
