<?xml version="1.0" encoding="UTF-8" standalone="no"?>
<!-- Created with Inkscape (http://www.inkscape.org/) -->

<svg
   width="20.969198mm"
   height="13.83175mm"
   viewBox="0 0 20.969198 13.83175"
   version="1.1"
   id="svg5"
   inkscape:version="1.1.1 (3bf5ae0d25, 2021-09-20)"
   sodipodi:docname="FjordSysConceptIcons.svg"
   xmlns:inkscape="http://www.inkscape.org/namespaces/inkscape"
   xmlns:sodipodi="http://sodipodi.sourceforge.net/DTD/sodipodi-0.dtd"
   xmlns="http://www.w3.org/2000/svg"
   xmlns:svg="http://www.w3.org/2000/svg">
  <sodipodi:namedview
     id="namedview7"
     pagecolor="#ffffff"
     bordercolor="#111111"
     borderopacity="1"
     inkscape:pageshadow="0"
     inkscape:pageopacity="0"
     inkscape:pagecheckerboard="1"
     inkscape:document-units="px"
     showgrid="false"
     inkscape:zoom="1.0824912"
     inkscape:cx="162.58793"
     inkscape:cy="357.97058"
     inkscape:window-width="2400"
     inkscape:window-height="1261"
     inkscape:window-x="2391"
     inkscape:window-y="-8"
     inkscape:window-maximized="1"
     inkscape:current-layer="layer3"
     showguides="true"
     inkscape:showpageshadow="2"
     inkscape:deskcolor="#d1d1d1">
    <inkscape:grid
       type="xygrid"
       id="grid3135"
       originx="-600.91684"
       originy="-162.22472"
       spacingy="1"
       spacingx="1"
       units="px"
       visible="false" />
  </sodipodi:namedview>
  <defs
     id="defs2">
    <marker
       style="overflow:visible"
       id="Arrow1Send-5-4-3"
       refX="0"
       refY="0"
       orient="auto"
       inkscape:stockid="Arrow1Send"
       inkscape:isstock="true">
      <path
         transform="matrix(-0.2,0,0,-0.2,-1.2,0)"
         style="fill:context-stroke;fill-rule:evenodd;stroke:context-stroke;stroke-width:1pt"
         d="M 0,0 5,-5 -12.5,0 5,5 Z"
         id="path7602-2-41-3" />
    </marker>
    <marker
       style="overflow:visible"
       id="Arrow1Send-5-40-0"
       refX="0"
       refY="0"
       orient="auto"
       inkscape:stockid="Arrow1Send"
       inkscape:isstock="true">
      <path
         transform="matrix(-0.2,0,0,-0.2,-1.2,0)"
         style="fill:context-stroke;fill-rule:evenodd;stroke:context-stroke;stroke-width:1pt"
         d="M 0,0 5,-5 -12.5,0 5,5 Z"
         id="path7602-2-2-3" />
    </marker>
  </defs>
  <g
     inkscape:groupmode="layer"
     id="layer3"
     inkscape:label="TextBoxes"
     style="display:inline"
     transform="translate(-158.99258,-42.921956)">
    <path
       style="display:inline;opacity:0.4;fill:none;fill-opacity:1;stroke:#3d93bd;stroke-width:0.705556;stroke-linecap:butt;stroke-linejoin:miter;stroke-miterlimit:4;stroke-dasharray:0.705556, 0.705556;stroke-dashoffset:0;stroke-opacity:1;marker-end:url(#Arrow1Send-5-40-0)"
       d="m 174.2689,9 c 0,32.729308 0,32.729308 0,32.729308"
       id="path3484-2-6-6"
       inkscape:export-filename="C:\Users\mke081\Documents\TheseTRADMOD\WP2_Grazing\03_PAPERS_3.4_NBRSurvey\07_SurveyDataAnalyses\NBRSurvey_TradMod\illustrations\NBR_CancorResults.png"
       inkscape:export-xdpi="122.52628"
       inkscape:export-ydpi="122.52628" />
    <path
       style="display:inline;opacity:0.4;fill:none;fill-opacity:1;stroke:#73a923;stroke-width:1.05833;stroke-linecap:butt;stroke-linejoin:miter;stroke-miterlimit:4;stroke-dasharray:1.05833, 1.05833;stroke-dashoffset:0;stroke-opacity:1;marker-end:url(#Arrow1Send-5-4-3)"
       d="m 170.80466,21 c 0,20.034169 0,20.034169 0,20.034169"
       id="path3484-2-5-1"
       inkscape:export-filename="C:\Users\mke081\Documents\TheseTRADMOD\WP2_Grazing\03_PAPERS_3.4_NBRSurvey\07_SurveyDataAnalyses\NBRSurvey_TradMod\illustrations\NBR_CancorResults.png"
       inkscape:export-xdpi="122.52628"
       inkscape:export-ydpi="122.52628" />
    <g
       id="g13020"
       inkscape:export-filename="C:\Users\mke081\Documents\TheseTRADMOD\WP2_Grazing\03_PAPERS_3.4_NBRSurvey\07_SurveyDataAnalyses\NBRSurvey_TradMod\illustrations\NBR_CancorResults.png"
       inkscape:export-xdpi="122.52628"
       inkscape:export-ydpi="122.52628"
       style="display:inline;mix-blend-mode:normal"
       transform="matrix(0.23299116,0,0,0.23299116,6.4881682,-10.459569)">
      <rect
         style="fill:#f2f2f2;fill-opacity:1;fill-rule:evenodd;stroke:#ad6e51;stroke-width:4.50905;stroke-linejoin:round;stroke-opacity:1"
         id="rect846-3-6-1"
         width="85.490952"
         height="54.856937"
         x="656.80475"
         y="231.36847"
         ry="5.0149189e-14" />
      <path
         style="fill:none;stroke:#ad6e51;stroke-width:3.36162;stroke-linecap:butt;stroke-linejoin:miter;stroke-miterlimit:4;stroke-dasharray:none;stroke-opacity:1"
         d="m 657.78945,266.80658 c 16.71581,-10.21135 68.89157,-9.51195 84.13865,-0.41966"
         id="path50562-8"
         sodipodi:nodetypes="cc" />
      <path
         style="fill:#ad6e51;fill-opacity:1;stroke:#ad6e51;stroke-width:0.285483;stroke-linecap:butt;stroke-linejoin:miter;stroke-miterlimit:4;stroke-dasharray:none;stroke-opacity:1"
         d="m 698.94783,259.67796 c -2.96489,-3.42567 -4.37703,-7.11673 -4.9344,-12.31642 3.4679,3.07129 3.30271,7.13808 4.35411,10.56685 0.18494,0.6031 0.68993,-3.80131 0.82509,-3.09159 0.4175,-1.24857 0.0403,3.8121 0.20722,3.4389 4.26173,-9.54805 7.83823,-12.72511 10.60177,-14.69641 -0.34768,2.43523 -3.27431,7.50334 -11.05378,16.09867 z"
         id="path7965-9"
         sodipodi:nodetypes="ccscscc" />
      <path
         style="fill:#ad6e51;fill-opacity:1;stroke:#ad6e51;stroke-width:0.19793;stroke-linecap:butt;stroke-linejoin:miter;stroke-miterlimit:4;stroke-dasharray:none;stroke-opacity:1"
         d="m 672.28719,261.08783 c -2.05561,-2.37511 -3.0347,-4.9342 -3.42112,-8.53925 2.40436,2.12942 2.28985,4.949 3.01881,7.32625 0.12823,0.41812 0.47831,-2.63556 0.57205,-2.14348 0.28944,-0.86567 0.028,2.64299 0.14387,2.38425 2.95471,-6.61985 5.43438,-8.82259 7.3504,-10.18933 -0.24107,1.68843 -2.27011,5.20223 -7.66378,11.16156 z"
         id="path7965-9-3"
         sodipodi:nodetypes="ccscscc" />
      <path
         style="fill:#ad6e51;fill-opacity:1;stroke:#ad6e51;stroke-width:0.201115;stroke-linecap:butt;stroke-linejoin:miter;stroke-miterlimit:4;stroke-dasharray:none;stroke-opacity:1"
         d="m 727.47591,261.39682 c -2.08867,-2.41329 -3.08351,-5.01353 -3.47614,-8.6766 2.44303,2.16365 2.32668,5.02859 3.06733,7.44405 0.13032,0.42486 0.48605,-2.67792 0.58125,-2.1779 0.29413,-0.87962 0.0285,2.68549 0.14595,2.42258 3.00228,-6.72634 5.52182,-8.9645 7.46868,-10.3532 -0.24505,1.71557 -2.30666,5.28589 -7.7871,11.34107 z"
         id="path7965-9-1"
         sodipodi:nodetypes="ccscscc" />
      <path
         style="fill:#ad6e51;fill-opacity:1;stroke:#ad6e51;stroke-width:0.18102px;stroke-linecap:butt;stroke-linejoin:miter;stroke-opacity:1"
         d="m 683.67156,258.52808 c -1.5471,-3.80892 -2.12258,-8.39515 -2.50244,-13.13788 0.59068,4.93378 1.72151,9.49622 4.1916,13.13788 -1.58837,-7.96615 -0.0813,-15.93228 0.37538,-23.89843 -0.11937,7.96257 -1.00457,16.02728 0.50048,23.77331 1.28358,-5.60421 2.48317,-11.15944 2.37734,-15.95315 0.2984,5.21347 -0.10895,10.42689 -0.62561,15.64036 -2.52129,1.19389 12.65412,0.61108 -4.31675,0.43791 z"
         id="path13898-9"
         sodipodi:nodetypes="cccccccc" />
      <path
         style="fill:#ad6e51;fill-opacity:1;stroke:#ad6e51;stroke-width:0.135813px;stroke-linecap:butt;stroke-linejoin:miter;stroke-opacity:1"
         d="m 657.78945,264.96986 c -1.16074,-2.85769 -1.59247,-6.29857 -1.8775,-9.85683 0.44317,3.70161 1.29161,7.12464 3.14481,9.85683 -1.1917,-5.9767 -0.061,-11.95338 0.28163,-17.93003 -0.0895,5.97396 -0.75368,12.0246 0.37548,17.83617 0.96302,-4.20465 1.86302,-8.37249 1.78363,-11.96903 0.22395,3.91145 -0.0817,7.82287 -0.46936,11.73432 3.32637,-5.52181 3.51185,-12.04866 4.83452,-18.21167 -0.99229,6.20546 -1.12991,12.46118 -3.47333,18.58717 z"
         id="path13898-6"
         sodipodi:nodetypes="cccccccccc" />
      <path
         style="fill:#ad6e51;fill-opacity:1;stroke:#ad6e51;stroke-width:0.138638px;stroke-linecap:butt;stroke-linejoin:miter;stroke-opacity:1"
         d="m 717.80031,259.53067 c -1.18487,-2.91714 -1.62562,-6.4296 -1.91656,-10.0619 0.45238,3.77862 1.31846,7.27285 3.21023,10.0619 -1.21649,-6.10105 -0.0622,-12.20206 0.28748,-18.30307 -0.0914,6.09828 -0.76937,12.27479 0.38332,18.20722 0.98306,-4.29208 1.90177,-8.54666 1.82073,-12.218 0.22854,3.9928 -0.0836,7.98561 -0.47915,11.97845 3.3956,-5.6367 3.58492,-12.29936 4.93514,-18.59056 -1.01296,6.33455 -1.15344,12.72042 -3.54562,18.97386 z"
         id="path13898-5"
         sodipodi:nodetypes="cccccccccc" />
      <path
         style="fill:#ad6e51;fill-opacity:1;stroke:#ad6e51;stroke-width:0.27343px;stroke-linecap:butt;stroke-linejoin:miter;stroke-opacity:1"
         d="m 675.16676,259.66206 c 0.70382,-1.57062 1.20399,-3.22272 0.66149,-5.29187 l 1.13396,5.10286 0.85048,-7.55982 c 0.007,3.36049 0.56613,5.6086 1.32297,7.46533 1.42763,-1.46842 1.55511,-2.75108 1.22848,-3.96891 l 1.13398,3.40193 c 1.36245,-1.65997 1.25215,-3.90904 1.41744,-6.04786 l 0.756,5.76436 0.94496,-2.45693 c 0.15395,1.09687 -0.43192,2.34173 0.8505,3.21291 z"
         id="path16135-6"
         sodipodi:nodetypes="cccccccccccc" />
      <path
         style="fill:#ad6e51;fill-opacity:1;stroke:#ad6e51;stroke-width:0.27343px;stroke-linecap:butt;stroke-linejoin:miter;stroke-opacity:1"
         d="m 689.47056,259.1634 c 0.70383,-1.57062 1.20399,-3.22272 0.66151,-5.29187 l 1.13394,5.10286 0.85048,-7.55982 c 0.007,3.36049 0.56613,5.60859 1.32299,7.46533 1.42762,-1.46842 1.55511,-2.7511 1.22846,-3.96891 l 1.13398,3.40193 c 1.36247,-1.65997 1.25215,-3.90904 1.41746,-6.04786 l 0.75599,5.76436 0.94497,-2.45695 c 0.15395,1.09689 -0.43192,2.34174 0.8505,3.21291 z"
         id="path16135-6-7"
         sodipodi:nodetypes="cccccccccccc" />
      <path
         style="fill:#ad6e51;fill-opacity:1;stroke:#ad6e51;stroke-width:0.27343px;stroke-linecap:butt;stroke-linejoin:miter;stroke-opacity:1"
         d="m 707.72508,260.33055 c 0.70383,-1.57061 1.204,-3.22272 0.66151,-5.29187 l 1.13394,5.10288 0.85048,-7.55985 c 0.007,3.3605 0.56613,5.60861 1.32299,7.46534 1.42762,-1.4684 1.55511,-2.75108 1.22846,-3.9689 l 1.134,3.40194 c 1.36245,-1.65999 1.25215,-3.90906 1.41744,-6.04786 l 0.75599,5.76434 0.94497,-2.45693 c 0.15395,1.09688 -0.43192,2.34173 0.8505,3.21291 z"
         id="path16135-6-0"
         sodipodi:nodetypes="cccccccccccc" />
      <path
         style="fill:#ad6e51;fill-opacity:1;stroke:#ad6e51;stroke-width:0.27343px;stroke-linecap:butt;stroke-linejoin:miter;stroke-opacity:1"
         d="m 698.49292,259.07164 c 0.70383,-1.57062 1.20398,-3.22272 0.66148,-5.29188 l 1.13396,5.10287 0.85048,-7.55982 c 0.007,3.36049 0.56613,5.60859 1.32299,7.46533 1.42763,-1.46842 1.55511,-2.7511 1.22847,-3.96891 l 1.13398,3.40193 c 1.36245,-1.65997 1.25215,-3.90905 1.41746,-6.04786 l 0.75597,5.76436 0.94498,-2.45695 c 0.15395,1.09689 -0.43192,2.34174 0.8505,3.21291 z"
         id="path16135-6-0-1"
         sodipodi:nodetypes="cccccccccccc" />
      <path
         style="fill:#ad6e51;fill-opacity:1;stroke:#ad6e51;stroke-width:0.27343px;stroke-linecap:butt;stroke-linejoin:miter;stroke-opacity:1"
         d="m 728.21644,261.06206 c 1.02743,-1.38082 1.87369,-2.88527 1.79244,-5.02283 l 10e-4,5.22736 2.46837,-7.19597 c -0.72145,3.28217 -0.66262,5.59803 -0.32607,7.57467 1.71189,-1.12418 2.11429,-2.34876 2.05929,-3.60843 l 0.36989,3.56683 c 1.68975,-1.32534 2.06943,-3.54485 2.69425,-5.59704 l -0.51101,5.79123 1.45488,-2.19382 c -0.0874,1.10416 -0.92907,2.19251 0.13414,3.32086 z"
         id="path16135-6-4"
         sodipodi:nodetypes="cccccccccccc" />
      <path
         style="fill:#ad6e51;fill-opacity:1;stroke:#ad6e51;stroke-width:0.27343px;stroke-linecap:butt;stroke-linejoin:miter;stroke-opacity:1"
         d="m 662.02928,263.36861 c 0.56561,-1.62554 0.92127,-3.31463 0.20215,-5.32923 l 1.57027,4.9859 0.19459,-7.60503 c 0.29697,3.34737 1.04823,5.53881 1.96255,7.32325 1.29552,-1.58617 1.31181,-2.87505 0.88125,-4.06013 l 1.42344,3.29134 c 1.21404,-1.77142 0.91,-4.00256 0.89002,-6.14767 l 1.25083,5.67759 0.7293,-2.52937 c 0.24804,1.07951 -0.22809,2.37028 1.12482,3.12745 z"
         id="path16135-6-4-7"
         sodipodi:nodetypes="cccccccccccc" />
      <path
         style="fill:none;stroke:#ad6e51;stroke-width:0.327945px;stroke-linecap:butt;stroke-linejoin:miter;stroke-opacity:1"
         d="m 698.95033,259.68003 c -0.1159,1.25046 -0.96886,2.50092 0.2337,3.75139 1.30808,-0.73509 -1.59464,1.69119 -0.4674,2.18486 -2.03688,0.12181 -0.10113,0.91338 0.15586,2.67959 -1.21417,1.01686 -0.22922,2.0337 -0.31167,3.05055 -1.40408,-0.33772 -2.01488,2.32232 0.3116,2.43222 0.78999,0.0374 -3.46814,2.70775 -1.55805,3.17426 1.6669,0.64357 1.45101,1.19657 0.85693,1.7314 -1.06151,0.70943 -0.29073,1.09563 -0.23363,1.60772"
         id="path19367"
         sodipodi:nodetypes="cccccsccc" />
      <path
         style="display:inline;mix-blend-mode:normal;fill:none;stroke:#ad6e51;stroke-width:0.327945px;stroke-linecap:butt;stroke-linejoin:miter;stroke-opacity:1"
         d="m 718.41489,271.61894 c -0.1159,-1.25046 1.32469,-1.9026 0.2337,-3.75139 0.56018,-1.01001 -1.59464,-1.69119 -0.4674,-2.18486 1.20402,-1.16887 -0.10113,-0.91338 0.15585,-2.67959 -1.21417,-1.01686 -0.22922,-2.0337 -0.31168,-3.05055"
         id="path19367-0-6"
         sodipodi:nodetypes="ccccc" />
      <path
         style="display:inline;mix-blend-mode:normal;fill:none;stroke:#ad6e51;stroke-width:0.327945px;stroke-linecap:butt;stroke-linejoin:miter;stroke-opacity:1"
         d="m 728.97782,277.86892 c -0.1159,-1.25046 1.32469,-1.9026 0.2337,-3.75139 0.56018,-1.01001 -1.59464,-1.69119 -0.4674,-2.18486 1.20402,-1.16887 -0.10113,-0.91338 0.15585,-2.67959 -1.21417,-1.01686 -0.22922,-2.0337 -0.31168,-3.05055"
         id="path19367-0-6-0"
         sodipodi:nodetypes="ccccc" />
      <path
         style="display:inline;mix-blend-mode:normal;fill:none;stroke:#ad6e51;stroke-width:0.327945px;stroke-linecap:butt;stroke-linejoin:miter;stroke-opacity:1"
         d="m 677.71454,276.9122 c -0.1159,-1.25046 1.32469,-1.9026 0.2337,-3.75139 0.56018,-1.01001 -1.59464,-1.69119 -0.4674,-2.18486 1.20402,-1.16887 -0.10113,-0.91338 0.15585,-2.67959 -1.21417,-1.01686 -0.22922,-2.0337 -0.31168,-3.05055"
         id="path19367-0-6-3"
         sodipodi:nodetypes="ccccc" />
      <path
         style="display:inline;mix-blend-mode:normal;fill:none;stroke:#ad6e51;stroke-width:0.327945px;stroke-linecap:butt;stroke-linejoin:miter;stroke-opacity:1"
         d="m 681.01241,273.58096 c -0.1159,-1.25046 1.32469,-1.9026 0.2337,-3.75139 0.56018,-1.01001 -1.59464,-1.69119 -0.4674,-2.18486 1.20402,-1.16887 -0.10113,-0.91338 0.15585,-2.67959 -1.21417,-1.01686 -0.22922,-2.0337 -0.31168,-3.05055"
         id="path19367-0-6-6"
         sodipodi:nodetypes="ccccc" />
      <path
         style="display:inline;mix-blend-mode:normal;fill:none;stroke:#ad6e51;stroke-width:0.327945px;stroke-linecap:butt;stroke-linejoin:miter;stroke-opacity:1"
         d="m 666.1541,276.772 c -0.1159,-1.25046 1.32469,-1.9026 0.2337,-3.75139 0.56018,-1.01001 -1.59464,-1.69119 -0.4674,-2.18486 1.20402,-1.16887 -0.10113,-0.91338 0.15585,-2.67959 -1.21417,-1.01686 -0.22922,-2.0337 -0.31168,-3.05055"
         id="path19367-0-6-31"
         sodipodi:nodetypes="ccccc" />
      <path
         style="display:inline;mix-blend-mode:normal;fill:none;stroke:#ad6e51;stroke-width:0.327945px;stroke-linecap:butt;stroke-linejoin:miter;stroke-opacity:1"
         d="m 704.86604,272.32758 c -0.1159,-1.25046 1.32469,-1.9026 0.2337,-3.75139 0.56018,-1.01001 -1.59464,-1.69119 -0.4674,-2.18486 1.20402,-1.16887 -0.10113,-0.91338 0.15585,-2.67959 -1.21417,-1.01686 -0.22922,-2.0337 -0.31168,-3.05055"
         id="path19367-0-6-2"
         sodipodi:nodetypes="ccccc" />
      <path
         style="display:inline;mix-blend-mode:normal;fill:none;stroke:#ad6e51;stroke-width:0.327945px;stroke-linecap:butt;stroke-linejoin:miter;stroke-opacity:1"
         d="m 685.46702,259.28406 c 0.1159,1.25046 -1.3247,1.9026 -0.2337,3.75139 -0.56018,1.01001 1.59464,1.69119 0.4674,2.18486 -1.20403,1.16887 0.10113,0.91338 -0.15586,2.67959 1.21417,1.01686 0.22923,2.0337 0.31168,3.05055 1.40408,0.7592 0,0 -0.3116,2.43222 -0.1005,0.78446 1.27429,0.81307 0.95973,3.07454 -1.66691,0.64357 -0.85269,1.29629 -0.25862,1.83112 -1.03261,1.05845 0.29074,1.09563 0.23363,1.60772"
         id="path19367-0-3"
         sodipodi:nodetypes="cccccsccc" />
      <path
         style="display:inline;mix-blend-mode:normal;fill:none;stroke:#ad6e51;stroke-width:0.327945px;stroke-linecap:butt;stroke-linejoin:miter;stroke-opacity:1"
         d="m 694.3004,260.14396 c 0.1159,1.25046 -1.3247,1.9026 -0.2337,3.75139 -0.56018,1.01001 1.59464,1.69119 0.4674,2.18486 -1.20403,1.16887 0.10113,0.91338 -0.15586,2.67959 1.21417,1.01686 0.22923,2.0337 0.31168,3.05055 1.40408,0.7592 0,0 -0.3116,2.43222 -0.1005,0.78446 1.27429,0.81307 0.95973,3.07454 -1.66691,0.64357 -0.85269,1.29629 -0.25862,1.83112 -1.03261,1.05845 0.29074,1.09563 0.23363,1.60772"
         id="path19367-0-1"
         sodipodi:nodetypes="cccccsccc" />
      <path
         style="display:inline;mix-blend-mode:normal;fill:none;stroke:#ad6e51;stroke-width:0.327945px;stroke-linecap:butt;stroke-linejoin:miter;stroke-opacity:1"
         d="m 714.45902,259.14054 c -0.1159,1.25046 1.3247,1.9026 0.2337,3.75139 0.56018,1.01001 -1.59464,1.69119 -0.4674,2.18486 1.20403,1.16887 -0.10113,0.91338 0.15586,2.67959 -1.21417,1.01686 -0.22923,2.0337 -0.31168,3.05055 -1.40408,0.7592 0,0 0.3116,2.43222 0.1005,0.78446 -1.27429,0.81307 -0.95973,3.07454 1.66691,0.64357 0.85269,1.29629 0.25862,1.83112 1.03261,1.05845 -0.29074,1.09563 -0.23363,1.60772"
         id="path19367-0-8"
         sodipodi:nodetypes="cccccsccc" />
      <path
         style="display:inline;mix-blend-mode:normal;fill:none;stroke:#ad6e51;stroke-width:0.327945px;stroke-linecap:butt;stroke-linejoin:miter;stroke-opacity:1"
         d="m 725.87654,259.92423 c -0.1159,1.25046 1.3247,1.9026 0.2337,3.75139 0.56018,1.01001 -1.59464,1.69119 -0.4674,2.18486 1.20403,1.16887 -0.10113,0.91338 0.15586,2.67959 -1.21417,1.01686 -0.22923,2.0337 -0.31168,3.05055 -1.40408,0.7592 0,0 0.3116,2.43222 0.1005,0.78446 -1.27429,0.81307 -0.95973,3.07454 1.66691,0.64357 0.85269,1.29629 0.25862,1.83112 1.03261,1.05845 -0.29074,1.09563 -0.23363,1.60772"
         id="path19367-0-4"
         sodipodi:nodetypes="cccccsccc" />
      <path
         style="display:inline;mix-blend-mode:normal;fill:none;stroke:#ad6e51;stroke-width:0.327945px;stroke-linecap:butt;stroke-linejoin:miter;stroke-opacity:1"
         d="m 671.33878,260.73195 c -0.1159,1.25046 1.3247,1.9026 0.2337,3.75139 0.56018,1.01001 -1.59464,1.69119 -0.4674,2.18486 1.20403,1.16887 -0.10113,0.91338 0.15586,2.67959 -1.21417,1.01686 -0.22923,2.0337 -0.31168,3.05055 -1.40408,0.7592 0,0 0.3116,2.43222 0.1005,0.78446 -1.27429,0.81307 -0.95973,3.07454 1.66691,0.64357 0.85269,1.29629 0.25862,1.83112 1.03261,1.05845 -0.29074,1.09563 -0.23363,1.60772"
         id="path19367-0-0"
         sodipodi:nodetypes="cccccsccc" />
      <path
         style="display:inline;mix-blend-mode:normal;fill:none;stroke:#ad6e51;stroke-width:0.327945px;stroke-linecap:butt;stroke-linejoin:miter;stroke-opacity:1"
         d="m 661.81869,264.26362 c -0.1159,1.25046 1.3247,1.9026 0.2337,3.75139 0.56018,1.01001 -1.59464,1.69119 -0.4674,2.18486 1.20403,1.16887 -0.10113,0.91338 0.15586,2.67959 -1.21417,1.01686 -0.22923,2.0337 -0.31168,3.05055 -1.40408,0.7592 0,0 0.3116,2.43222 0.1005,0.78446 -1.27429,0.81307 -0.95973,3.07454 1.66691,0.64357 0.85269,1.29629 0.25862,1.83112 1.03261,1.05845 -0.29074,1.09563 -0.23363,1.60772"
         id="path19367-0-0-0"
         sodipodi:nodetypes="cccccsccc" />
      <path
         style="fill:none;stroke:#ad6e51;stroke-width:0.318502px;stroke-linecap:butt;stroke-linejoin:miter;stroke-opacity:1"
         d="m 712.33101,259.8324 c -0.1159,1.1784 -0.55735,0.51618 0.64632,1.69461 0.60617,3.65621 -1.65649,1.9673 -0.46783,2.05896 -2.03872,0.11503 -0.10148,0.86073 0.15603,2.52519 -1.2153,0.95825 -0.22948,1.91651 -0.31194,2.87477 -1.40537,-0.31826 -2.01674,2.18848 0.31187,2.29208 0.79071,0.0351 -3.47131,2.55169 -1.55947,2.99133 1.66845,0.60649 1.45233,1.12762 0.85771,1.63163 -1.0625,0.66856 -0.29101,1.03251 -0.23386,1.51509"
         id="path19367-6"
         sodipodi:nodetypes="cccccsccc" />
      <path
         style="fill:none;stroke:#ad6e51;stroke-width:0.332779px;stroke-linecap:butt;stroke-linejoin:miter;stroke-opacity:1"
         d="m 734.58136,261.60369 c -0.11572,1.28822 -0.96841,2.57642 0.23358,3.86464 1.30747,-0.75728 -1.59389,1.74223 -0.46718,2.25081 -2.0359,0.12545 -0.10112,0.94093 0.15586,2.76048 -1.21363,1.04753 -0.22923,2.0951 -0.31154,3.14262 -1.40342,-0.34789 -2.01394,2.39243 0.31147,2.50565 0.7896,0.0386 -3.46653,2.78947 -1.55731,3.27006 1.66612,0.66301 1.45031,1.23272 0.85651,1.78368 -1.06101,0.73083 -0.29059,1.1287 -0.23353,1.65625"
         id="path19367-3"
         sodipodi:nodetypes="cccccsccc" />
      <path
         style="display:inline;mix-blend-mode:normal;fill:none;stroke:#ad6e51;stroke-width:0.146;stroke-linecap:butt;stroke-linejoin:miter;stroke-miterlimit:4;stroke-dasharray:none;stroke-opacity:1"
         d="m 707.10741,263.01651 c -0.007,0.41209 -0.0583,0.8498 0.16049,1.12954 0.0812,0.52518 -0.19985,0.64949 -0.47048,0.78531 -0.33991,-0.023 -0.43412,0.79103 -0.0572,1.00214 0.16198,0.091 -0.1975,0.396 -0.1975,0.396 l -0.21514,0.61029"
         id="path21767-92-30-1"
         sodipodi:nodetypes="cccscc" />
      <path
         style="display:inline;mix-blend-mode:normal;fill:none;stroke:#ad6e51;stroke-width:0.146;stroke-linecap:butt;stroke-linejoin:miter;stroke-miterlimit:4;stroke-dasharray:none;stroke-opacity:1"
         d="m 708.74302,262.44992 c -0.007,0.41209 -0.0583,0.8498 0.16049,1.12954 0.0812,0.52518 -0.19985,0.64949 -0.47048,0.78531 -0.33991,-0.023 -0.43412,0.79103 -0.0572,1.00214 0.16198,0.091 -0.1975,0.396 -0.1975,0.396 l -0.21514,0.61029"
         id="path21767-92-30-1-9"
         sodipodi:nodetypes="cccscc" />
      <path
         style="display:inline;mix-blend-mode:normal;fill:none;stroke:#ad6e51;stroke-width:0.146;stroke-linecap:butt;stroke-linejoin:miter;stroke-miterlimit:4;stroke-dasharray:none;stroke-opacity:1"
         d="m 710.22379,263.01402 c -0.007,0.41209 -0.0583,0.8498 0.16049,1.12954 0.0812,0.52518 -0.19985,0.64949 -0.47048,0.78531 -0.33991,-0.023 -0.43412,0.79103 -0.0572,1.00214 0.16198,0.091 -0.1975,0.396 -0.1975,0.396 l -0.21514,0.61029"
         id="path21767-92-30-1-1"
         sodipodi:nodetypes="cccscc" />
      <path
         style="fill:none;stroke:#ad6e51;stroke-width:1.065;stroke-linecap:butt;stroke-linejoin:miter;stroke-miterlimit:4;stroke-dasharray:none;stroke-opacity:1"
         d="m 670.92946,263.64743 c 1.0048,5.07511 1.99833,-0.65521 7.61539,2.04488"
         id="path1581"
         sodipodi:nodetypes="cc" />
      <path
         style="display:inline;mix-blend-mode:normal;fill:none;stroke:#ad6e51;stroke-width:1.065;stroke-linecap:butt;stroke-linejoin:miter;stroke-miterlimit:4;stroke-dasharray:none;stroke-opacity:1"
         d="m 713.64726,261.32322 c -1.0048,5.07511 -1.99833,-0.65521 -7.61539,2.04488"
         id="path1581-3"
         sodipodi:nodetypes="cc" />
      <path
         style="display:inline;mix-blend-mode:normal;fill:none;stroke:#ad6e51;stroke-width:1.065;stroke-linecap:butt;stroke-linejoin:miter;stroke-miterlimit:4;stroke-dasharray:none;stroke-opacity:1"
         d="m 673.40191,265.39798 c -2.48557,1.54947 -0.165,3.43454 -5.14744,1.12822"
         id="path1581-1"
         sodipodi:nodetypes="cc" />
      <path
         style="display:inline;mix-blend-mode:normal;fill:none;stroke:#ad6e51;stroke-width:1.065;stroke-linecap:butt;stroke-linejoin:miter;stroke-miterlimit:4;stroke-dasharray:none;stroke-opacity:1"
         d="m 703.16122,262.84822 c -2.79524,-0.87495 -2.71217,2.11363 -4.21089,-3.16819"
         id="path1581-1-3"
         sodipodi:nodetypes="cc" />
      <path
         style="display:inline;mix-blend-mode:normal;fill:none;stroke:#ad6e51;stroke-width:1.065;stroke-linecap:butt;stroke-linejoin:miter;stroke-miterlimit:4;stroke-dasharray:none;stroke-opacity:1"
         d="m 688.12162,261.60527 c -2.48557,1.54947 -0.165,3.43454 -5.14744,1.12822"
         id="path1581-1-0"
         sodipodi:nodetypes="cc" />
      <path
         style="display:inline;mix-blend-mode:normal;fill:none;stroke:#ad6e51;stroke-width:1.065;stroke-linecap:butt;stroke-linejoin:miter;stroke-miterlimit:4;stroke-dasharray:none;stroke-opacity:1"
         d="m 724.97923,263.96233 c 2.48557,1.54947 0.165,3.43454 5.14744,1.12822"
         id="path1581-1-0-7"
         sodipodi:nodetypes="cc" />
      <path
         style="fill:none;stroke:#ad6e51;stroke-width:1.165;stroke-linecap:butt;stroke-linejoin:miter;stroke-miterlimit:4;stroke-dasharray:none;stroke-opacity:1"
         d="m 698.95033,259.68003 c -0.21572,0.95329 0.43664,2.23211 -1.12821,2.67948"
         id="path4239"
         sodipodi:nodetypes="cc" />
      <path
         style="display:inline;mix-blend-mode:normal;fill:none;stroke:#ad6e51;stroke-width:1.165;stroke-linecap:butt;stroke-linejoin:miter;stroke-miterlimit:4;stroke-dasharray:none;stroke-opacity:1"
         d="m 683.62931,260.89322 c -0.21572,0.95329 0.43664,2.23211 -1.12821,2.67948"
         id="path4239-29"
         sodipodi:nodetypes="cc" />
      <path
         style="display:inline;mix-blend-mode:normal;fill:none;stroke:#ad6e51;stroke-width:1.165;stroke-linecap:butt;stroke-linejoin:miter;stroke-miterlimit:4;stroke-dasharray:none;stroke-opacity:1"
         d="m 675.94342,264.84194 c -0.21572,0.95329 0.43664,2.23211 -1.12821,2.67948"
         id="path4239-8"
         sodipodi:nodetypes="cc" />
      <path
         style="display:inline;mix-blend-mode:normal;fill:none;stroke:#ad6e51;stroke-width:1.165;stroke-linecap:butt;stroke-linejoin:miter;stroke-miterlimit:4;stroke-dasharray:none;stroke-opacity:1"
         d="m 663.1806,265.33553 c -0.21572,0.95329 0.43664,2.23211 -1.12821,2.67948"
         id="path4239-1"
         sodipodi:nodetypes="cc" />
      <path
         style="display:inline;mix-blend-mode:normal;fill:none;stroke:#ad6e51;stroke-width:1.165;stroke-linecap:butt;stroke-linejoin:miter;stroke-miterlimit:4;stroke-dasharray:none;stroke-opacity:1"
         d="m 734.82162,264.20733 c -0.21572,0.95329 0.43664,2.23211 -1.12821,2.67948"
         id="path4239-1-0"
         sodipodi:nodetypes="cc" />
      <path
         style="display:inline;mix-blend-mode:normal;fill:none;stroke:#ad6e51;stroke-width:1.165;stroke-linecap:butt;stroke-linejoin:miter;stroke-miterlimit:4;stroke-dasharray:none;stroke-opacity:1"
         d="m 711.53732,263.43168 c 0.21572,0.95329 -0.43664,2.23211 1.12821,2.67948"
         id="path4239-9"
         sodipodi:nodetypes="cc" />
      <path
         style="display:inline;mix-blend-mode:normal;fill:none;stroke:#ad6e51;stroke-width:1.165;stroke-linecap:butt;stroke-linejoin:miter;stroke-miterlimit:4;stroke-dasharray:none;stroke-opacity:1"
         d="m 725.42661,261.85584 c -0.21572,0.95329 0.43664,2.23211 -1.12821,2.67948"
         id="path4239-4"
         sodipodi:nodetypes="cc" />
      <path
         style="display:inline;mix-blend-mode:normal;fill:none;stroke:#ad6e51;stroke-width:1.165;stroke-linecap:butt;stroke-linejoin:miter;stroke-miterlimit:4;stroke-dasharray:none;stroke-opacity:1"
         d="m 714.22532,265.07679 c -0.21572,-0.95329 0.43664,-2.23211 -1.12821,-2.67948"
         id="path4239-2"
         sodipodi:nodetypes="cc" />
      <path
         style="display:inline;mix-blend-mode:normal;fill:none;stroke:#ad6e51;stroke-width:1.065;stroke-linecap:butt;stroke-linejoin:miter;stroke-miterlimit:4;stroke-dasharray:none;stroke-opacity:1"
         d="m 696.13611,259.95327 c -1.89894,2.23001 0.88387,3.32296 -4.56326,2.63546"
         id="path1581-1-2"
         sodipodi:nodetypes="cc" />
      <ellipse
         style="fill:#ad6e51;fill-opacity:1;fill-rule:evenodd;stroke:#ad6e51;stroke-width:0.756666;stroke-linejoin:round;stroke-miterlimit:4;stroke-dasharray:none;stroke-opacity:1"
         id="path5721"
         cx="633.12067"
         cy="348.43634"
         rx="2.2842948"
         ry="0.83878237"
         transform="rotate(-7.4772952)" />
      <ellipse
         style="display:inline;mix-blend-mode:normal;fill:#ad6e51;fill-opacity:1;fill-rule:evenodd;stroke:#ad6e51;stroke-width:0.756666;stroke-linejoin:round;stroke-miterlimit:4;stroke-dasharray:none;stroke-opacity:1"
         id="path5721-5"
         cx="738.40552"
         cy="178.72952"
         rx="2.2842948"
         ry="0.83878237"
         transform="rotate(6.4950573)" />
      <ellipse
         style="display:inline;mix-blend-mode:normal;fill:#ad6e51;fill-opacity:1;fill-rule:evenodd;stroke:#ad6e51;stroke-width:0.756666;stroke-linejoin:round;stroke-miterlimit:4;stroke-dasharray:none;stroke-opacity:1"
         id="path5721-5-1"
         cx="724.04938"
         cy="179.7962"
         rx="2.2842948"
         ry="0.83878237"
         transform="rotate(6.4950573)" />
      <ellipse
         style="display:inline;mix-blend-mode:normal;fill:#ad6e51;fill-opacity:1;fill-rule:evenodd;stroke:#ad6e51;stroke-width:0.756666;stroke-linejoin:round;stroke-miterlimit:4;stroke-dasharray:none;stroke-opacity:1"
         id="path5721-5-18"
         cx="710.05505"
         cy="182.17009"
         rx="2.2842948"
         ry="0.83878237"
         transform="rotate(6.4950573)" />
      <ellipse
         style="display:inline;mix-blend-mode:normal;fill:#ad6e51;fill-opacity:1;fill-rule:evenodd;stroke:#ad6e51;stroke-width:0.756666;stroke-linejoin:round;stroke-miterlimit:4;stroke-dasharray:none;stroke-opacity:1"
         id="path5721-5-2"
         cx="760.85358"
         cy="135.12263"
         rx="2.2842948"
         ry="0.83878237"
         transform="rotate(9.7948233)" />
      <path
         style="display:inline;mix-blend-mode:normal;fill:none;stroke:#ad6e51;stroke-width:0.146;stroke-linecap:butt;stroke-linejoin:miter;stroke-miterlimit:4;stroke-dasharray:none;stroke-opacity:1"
         d="m 693.05392,262.873 c -0.007,0.41209 -0.0583,0.8498 0.16049,1.12954 0.0812,0.52518 -0.19985,0.64949 -0.47048,0.78531 -0.33991,-0.023 -0.43412,0.79103 -0.0572,1.00214 0.16198,0.091 -0.1975,0.396 -0.1975,0.396 l -0.21514,0.61029"
         id="path21767-92-30-1-13"
         sodipodi:nodetypes="cccscc" />
      <path
         style="display:inline;mix-blend-mode:normal;fill:none;stroke:#ad6e51;stroke-width:0.146;stroke-linecap:butt;stroke-linejoin:miter;stroke-miterlimit:4;stroke-dasharray:none;stroke-opacity:1"
         d="m 695.31393,262.15693 c -0.007,0.41209 -0.0583,0.8498 0.16049,1.12954 0.0812,0.52518 -0.19985,0.64949 -0.47048,0.78531 -0.33991,-0.023 -0.43412,0.79103 -0.0572,1.00214 0.16198,0.091 -0.1975,0.396 -0.1975,0.396 l -0.21514,0.61029"
         id="path21767-92-30-1-17"
         sodipodi:nodetypes="cccscc" />
      <path
         style="display:inline;mix-blend-mode:normal;fill:none;stroke:#ad6e51;stroke-width:0.146;stroke-linecap:butt;stroke-linejoin:miter;stroke-miterlimit:4;stroke-dasharray:none;stroke-opacity:1"
         d="m 687.47252,262.03604 c -0.007,0.41209 -0.0583,0.8498 0.16049,1.12954 0.0812,0.52518 -0.19985,0.64949 -0.47048,0.78531 -0.33991,-0.023 -0.43412,0.79103 -0.0572,1.00214 0.16198,0.091 -0.1975,0.396 -0.1975,0.396 l -0.21514,0.61029"
         id="path21767-92-30-1-17-2"
         sodipodi:nodetypes="cccscc" />
      <path
         style="display:inline;mix-blend-mode:normal;fill:none;stroke:#ad6e51;stroke-width:0.146;stroke-linecap:butt;stroke-linejoin:miter;stroke-miterlimit:4;stroke-dasharray:none;stroke-opacity:1"
         d="m 684.21799,263.26641 c -0.007,0.41209 -0.0583,0.8498 0.16049,1.12954 0.0812,0.52518 -0.19985,0.64949 -0.47048,0.78531 -0.33991,-0.023 -0.43412,0.79103 -0.0572,1.00214 0.16198,0.091 -0.1975,0.396 -0.1975,0.396 l -0.21514,0.61029"
         id="path21767-92-30-1-0"
         sodipodi:nodetypes="cccscc" />
      <path
         style="display:inline;mix-blend-mode:normal;fill:none;stroke:#ad6e51;stroke-width:0.146;stroke-linecap:butt;stroke-linejoin:miter;stroke-miterlimit:4;stroke-dasharray:none;stroke-opacity:1"
         d="m 724.2984,264.53532 c -0.007,0.41209 -0.0583,0.8498 0.16049,1.12954 0.0812,0.52518 -0.19985,0.64949 -0.47048,0.78531 -0.33991,-0.023 -0.43412,0.79103 -0.0572,1.00214 0.16197,0.091 -0.1975,0.396 -0.1975,0.396 l -0.21514,0.61029"
         id="path21767-92-30-1-7"
         sodipodi:nodetypes="cccscc" />
      <path
         style="display:inline;mix-blend-mode:normal;fill:none;stroke:#ad6e51;stroke-width:0.146;stroke-linecap:butt;stroke-linejoin:miter;stroke-miterlimit:4;stroke-dasharray:none;stroke-opacity:1"
         d="m 675.91325,267.27045 c -0.007,0.41209 -0.0583,0.8498 0.16049,1.12954 0.0812,0.52518 -0.19985,0.64949 -0.47048,0.78531 -0.33991,-0.023 -0.43412,0.79103 -0.0572,1.00214 0.16198,0.091 -0.1975,0.396 -0.1975,0.396 l -0.21514,0.61029"
         id="path21767-92-30-1-8"
         sodipodi:nodetypes="cccscc" />
      <path
         style="display:inline;mix-blend-mode:normal;fill:none;stroke:#ad6e51;stroke-width:0.146;stroke-linecap:butt;stroke-linejoin:miter;stroke-miterlimit:4;stroke-dasharray:none;stroke-opacity:1"
         d="m 673.40191,265.39798 c -0.007,0.41209 -0.0583,0.8498 0.16049,1.12954 0.0812,0.52518 -0.19985,0.64949 -0.47048,0.78531 -0.33991,-0.023 -0.43412,0.79103 -0.0572,1.00214 0.16198,0.091 -0.1975,0.396 -0.1975,0.396 l -0.21514,0.61029"
         id="path21767-92-30-1-4"
         sodipodi:nodetypes="cccscc" />
      <path
         style="display:inline;mix-blend-mode:normal;fill:none;stroke:#ad6e51;stroke-width:0.146;stroke-linecap:butt;stroke-linejoin:miter;stroke-miterlimit:4;stroke-dasharray:none;stroke-opacity:1"
         d="m 694.37824,268.7598 c -0.40938,0.0478 -0.85002,0.055 -1.09824,0.30901 -0.50976,0.15019 -0.67027,-0.11187 -0.84082,-0.36207"
         id="path21767-92-30-1-4-8"
         sodipodi:nodetypes="ccc" />
      <path
         style="display:inline;mix-blend-mode:normal;fill:none;stroke:#ad6e51;stroke-width:0.146;stroke-linecap:butt;stroke-linejoin:miter;stroke-miterlimit:4;stroke-dasharray:none;stroke-opacity:1"
         d="m 686.07313,269.67733 c -0.40938,0.0478 -0.85002,0.055 -1.09824,0.30901 -0.50976,0.15019 -0.67027,-0.11187 -0.84082,-0.36207"
         id="path21767-92-30-1-4-8-3"
         sodipodi:nodetypes="ccc" />
      <path
         style="display:inline;mix-blend-mode:normal;fill:none;stroke:#ad6e51;stroke-width:0.146;stroke-linecap:butt;stroke-linejoin:miter;stroke-miterlimit:4;stroke-dasharray:none;stroke-opacity:1"
         d="m 698.73759,267.38377 c -0.40938,0.0478 -0.85002,0.055 -1.09824,0.30901 -0.50976,0.15019 -0.67027,-0.11187 -0.84082,-0.36207"
         id="path21767-92-30-1-4-8-4"
         sodipodi:nodetypes="ccc" />
      <path
         style="display:inline;mix-blend-mode:normal;fill:none;stroke:#ad6e51;stroke-width:0.146;stroke-linecap:butt;stroke-linejoin:miter;stroke-miterlimit:4;stroke-dasharray:none;stroke-opacity:1"
         d="m 725.51246,273.56642 c -0.40938,0.0478 -0.85002,0.055 -1.09824,0.30901 -0.50976,0.15019 -0.67027,-0.11187 -0.84082,-0.36207"
         id="path21767-92-30-1-4-8-2"
         sodipodi:nodetypes="ccc" />
      <path
         style="display:inline;mix-blend-mode:normal;fill:none;stroke:#ad6e51;stroke-width:0.146;stroke-linecap:butt;stroke-linejoin:miter;stroke-miterlimit:4;stroke-dasharray:none;stroke-opacity:1"
         d="m 688.44373,276.51027 c -0.40938,0.0478 -0.85002,0.055 -1.09824,0.30901 -0.50976,0.15019 -0.67027,-0.11187 -0.84082,-0.36207"
         id="path21767-92-30-1-4-8-9"
         sodipodi:nodetypes="ccc" />
      <path
         style="display:inline;mix-blend-mode:normal;fill:none;stroke:#ad6e51;stroke-width:0.146;stroke-linecap:butt;stroke-linejoin:miter;stroke-miterlimit:4;stroke-dasharray:none;stroke-opacity:1"
         d="m 680.13978,275.11208 c -0.40938,0.0478 -0.85002,0.055 -1.09824,0.30901 -0.50976,0.15019 -0.67027,-0.11187 -0.84082,-0.36207"
         id="path21767-92-30-1-4-8-8"
         sodipodi:nodetypes="ccc" />
      <path
         style="display:inline;mix-blend-mode:normal;fill:none;stroke:#ad6e51;stroke-width:0.146;stroke-linecap:butt;stroke-linejoin:miter;stroke-miterlimit:4;stroke-dasharray:none;stroke-opacity:1"
         d="m 672.8602,275.81013 c -0.40938,0.0478 -0.85002,0.055 -1.09824,0.30901 -0.50976,0.15019 -0.67027,-0.11187 -0.84082,-0.36207"
         id="path21767-92-30-1-4-8-22"
         sodipodi:nodetypes="ccc" />
      <path
         style="display:inline;mix-blend-mode:normal;fill:none;stroke:#ad6e51;stroke-width:0.146;stroke-linecap:butt;stroke-linejoin:miter;stroke-miterlimit:4;stroke-dasharray:none;stroke-opacity:1"
         d="m 663.58623,278.60229 c -0.40938,0.0478 -0.85002,0.055 -1.09824,0.30901 -0.50976,0.15019 -0.67027,-0.11187 -0.84082,-0.36207"
         id="path21767-92-30-1-4-8-45"
         sodipodi:nodetypes="ccc" />
      <path
         style="display:inline;mix-blend-mode:normal;fill:none;stroke:#ad6e51;stroke-width:0.146;stroke-linecap:butt;stroke-linejoin:miter;stroke-miterlimit:4;stroke-dasharray:none;stroke-opacity:1"
         d="m 666.3878,273.02061 c -0.40938,0.0478 -0.85002,0.055 -1.09824,0.30901 -0.50976,0.15019 -0.67027,-0.11187 -0.84082,-0.36207"
         id="path21767-92-30-1-4-8-1"
         sodipodi:nodetypes="ccc" />
      <path
         style="display:inline;mix-blend-mode:normal;fill:none;stroke:#ad6e51;stroke-width:0.146;stroke-linecap:butt;stroke-linejoin:miter;stroke-miterlimit:4;stroke-dasharray:none;stroke-opacity:1"
         d="m 733.19092,274.31432 c -0.40938,0.0478 -0.85002,0.055 -1.09824,0.30901 -0.50976,0.15019 -0.67027,-0.11187 -0.84082,-0.36207"
         id="path21767-92-30-1-4-8-80"
         sodipodi:nodetypes="ccc" />
      <path
         style="display:inline;mix-blend-mode:normal;fill:none;stroke:#ad6e51;stroke-width:0.146;stroke-linecap:butt;stroke-linejoin:miter;stroke-miterlimit:4;stroke-dasharray:none;stroke-opacity:1"
         d="m 735.74181,281.23469 c -0.40938,0.0478 -0.85002,0.055 -1.09824,0.30901 -0.50976,0.15019 -0.67027,-0.11187 -0.84082,-0.36207"
         id="path21767-92-30-1-4-8-62"
         sodipodi:nodetypes="ccc" />
      <path
         style="display:inline;mix-blend-mode:normal;fill:none;stroke:#ad6e51;stroke-width:0.146;stroke-linecap:butt;stroke-linejoin:miter;stroke-miterlimit:4;stroke-dasharray:none;stroke-opacity:1"
         d="m 727.03657,278.98156 c -0.40938,0.0478 -0.85002,0.055 -1.09824,0.30901 -0.50976,0.15019 -0.67027,-0.11187 -0.84082,-0.36207"
         id="path21767-92-30-1-4-8-86"
         sodipodi:nodetypes="ccc" />
      <path
         style="display:inline;mix-blend-mode:normal;fill:none;stroke:#ad6e51;stroke-width:0.146;stroke-linecap:butt;stroke-linejoin:miter;stroke-miterlimit:4;stroke-dasharray:none;stroke-opacity:1"
         d="m 720.58765,267.92061 c -0.40938,0.0478 -0.85002,0.055 -1.09824,0.30901 -0.50976,0.15019 -0.67027,-0.11187 -0.84082,-0.36207"
         id="path21767-92-30-1-4-8-0"
         sodipodi:nodetypes="ccc" />
      <path
         style="display:inline;mix-blend-mode:normal;fill:none;stroke:#ad6e51;stroke-width:0.146;stroke-linecap:butt;stroke-linejoin:miter;stroke-miterlimit:4;stroke-dasharray:none;stroke-opacity:1"
         d="m 711.10599,274.26934 c -0.40938,0.0478 -0.85002,0.055 -1.09824,0.30901 -0.50976,0.15019 -0.67027,-0.11187 -0.84082,-0.36207"
         id="path21767-92-30-1-4-8-95"
         sodipodi:nodetypes="ccc" />
      <path
         style="display:inline;mix-blend-mode:normal;fill:none;stroke:#ad6e51;stroke-width:0.146;stroke-linecap:butt;stroke-linejoin:miter;stroke-miterlimit:4;stroke-dasharray:none;stroke-opacity:1"
         d="m 715.61905,278.19787 c -0.40938,0.0478 -0.85002,0.055 -1.09824,0.30901 -0.50976,0.15019 -0.67027,-0.11187 -0.84082,-0.36207"
         id="path21767-92-30-1-4-8-69"
         sodipodi:nodetypes="ccc" />
      <path
         style="display:inline;mix-blend-mode:normal;fill:none;stroke:#ad6e51;stroke-width:0.146;stroke-linecap:butt;stroke-linejoin:miter;stroke-miterlimit:4;stroke-dasharray:none;stroke-opacity:1"
         d="m 705.16954,268.77985 c -0.40938,0.0478 -0.85002,0.055 -1.09824,0.30901 -0.50976,0.15019 -0.67027,-0.11187 -0.84082,-0.36207"
         id="path21767-92-30-1-4-8-491"
         sodipodi:nodetypes="ccc" />
      <path
         style="display:inline;mix-blend-mode:normal;fill:none;stroke:#ad6e51;stroke-width:0.146;stroke-linecap:butt;stroke-linejoin:miter;stroke-miterlimit:4;stroke-dasharray:none;stroke-opacity:1"
         d="m 716.38807,272.9681 c -0.40938,0.0478 -0.85002,0.055 -1.09824,0.30901 -0.50976,0.15019 -0.67027,-0.11187 -0.84082,-0.36207"
         id="path21767-92-30-1-4-8-5"
         sodipodi:nodetypes="ccc" />
      <path
         style="display:inline;mix-blend-mode:normal;fill:none;stroke:#ad6e51;stroke-width:0.146;stroke-linecap:butt;stroke-linejoin:miter;stroke-miterlimit:4;stroke-dasharray:none;stroke-opacity:1"
         d="m 700.49988,271.39948 c -0.40938,0.0478 -0.85002,0.055 -1.09824,0.30901 -0.50976,0.15019 -0.67027,-0.11187 -0.84082,-0.36207"
         id="path21767-92-30-1-4-8-49"
         sodipodi:nodetypes="ccc" />
      <path
         style="display:inline;mix-blend-mode:normal;fill:none;stroke:#ad6e51;stroke-width:0.146;stroke-linecap:butt;stroke-linejoin:miter;stroke-miterlimit:4;stroke-dasharray:none;stroke-opacity:1"
         d="m 696.29445,274.11488 c -0.40938,0.0478 -0.85002,0.055 -1.09824,0.30901 -0.50976,0.15019 -0.67027,-0.11187 -0.84082,-0.36207"
         id="path21767-92-30-1-4-8-6"
         sodipodi:nodetypes="ccc" />
      <path
         style="display:inline;mix-blend-mode:normal;fill:none;stroke:#ad6e51;stroke-width:0.146;stroke-linecap:butt;stroke-linejoin:miter;stroke-miterlimit:4;stroke-dasharray:none;stroke-opacity:1"
         d="m 724.83889,277.09738 c -0.40939,0.0478 -0.85002,0.055 -1.09824,0.30901 -0.50977,0.15019 -0.67027,-0.11187 -0.84083,-0.36207"
         id="path21767-92-30-1-4-8-65"
         sodipodi:nodetypes="ccc" />
      <path
         style="display:inline;mix-blend-mode:normal;fill:none;stroke:#ad6e51;stroke-width:0.146;stroke-linecap:butt;stroke-linejoin:miter;stroke-miterlimit:4;stroke-dasharray:none;stroke-opacity:1"
         d="m 711.20261,269.92664 c -0.40938,0.0478 -0.85002,0.055 -1.09824,0.30901 -0.50976,0.15019 -0.67027,-0.11187 -0.84082,-0.36207"
         id="path21767-92-30-1-4-8-33"
         sodipodi:nodetypes="ccc" />
      <path
         style="display:inline;mix-blend-mode:normal;fill:none;stroke:#ad6e51;stroke-width:0.146;stroke-linecap:butt;stroke-linejoin:miter;stroke-miterlimit:4;stroke-dasharray:none;stroke-opacity:1"
         d="m 727.31074,265.72568 c -0.007,0.41209 -0.0583,0.8498 0.16049,1.12954 0.0812,0.52518 -0.19985,0.64949 -0.47048,0.78531 -0.33991,-0.023 -0.43412,0.79103 -0.0572,1.00214 0.16198,0.091 -0.1975,0.396 -0.1975,0.396 l -0.21514,0.61029"
         id="path21767-92-30-1-5"
         sodipodi:nodetypes="cccscc" />
      <path
         style="display:inline;mix-blend-mode:normal;fill:none;stroke:#ad6e51;stroke-width:0.146;stroke-linecap:butt;stroke-linejoin:miter;stroke-miterlimit:4;stroke-dasharray:none;stroke-opacity:1"
         d="m 729.40486,265.87526 c -0.007,0.41209 -0.0583,0.8498 0.16049,1.12954 0.0812,0.52518 -0.19985,0.64949 -0.47048,0.78531 -0.33991,-0.023 -0.43412,0.79103 -0.0572,1.00214 0.16198,0.091 -0.1975,0.396 -0.1975,0.396 l -0.21514,0.61029"
         id="path21767-92-30-1-87"
         sodipodi:nodetypes="cccscc" />
      <path
         style="display:inline;mix-blend-mode:normal;fill:none;stroke:#ad6e51;stroke-width:0.146;stroke-linecap:butt;stroke-linejoin:miter;stroke-miterlimit:4;stroke-dasharray:none;stroke-opacity:1"
         d="m 734.97923,266.25718 c 0.007,0.41209 0.0583,0.8498 -0.16049,1.12954 -0.0812,0.52518 0.19985,0.64949 0.47048,0.78531 0.33991,-0.023 0.43412,0.79103 0.0572,1.00214 -0.16198,0.091 0.1975,0.396 0.1975,0.396 l 0.21514,0.61029"
         id="path21767-92-30-1-87-4"
         sodipodi:nodetypes="cccscc" />
      <path
         style="display:inline;mix-blend-mode:normal;fill:none;stroke:#ad6e51;stroke-width:0.146;stroke-linecap:butt;stroke-linejoin:miter;stroke-miterlimit:4;stroke-dasharray:none;stroke-opacity:1"
         d="m 663.43683,267.52065 c 0.007,0.41209 0.0583,0.8498 -0.16049,1.12954 -0.0812,0.52518 0.19985,0.64949 0.47048,0.78531 0.33991,-0.023 0.43412,0.79103 0.0572,1.00214 -0.16198,0.091 0.1975,0.396 0.1975,0.396 l 0.21514,0.61029"
         id="path21767-92-30-1-87-4-5"
         sodipodi:nodetypes="cccscc" />
    </g>
  </g>
</svg>
