<?xml version="1.0" encoding="UTF-8" standalone="no"?>
<!-- Created with Inkscape (http://www.inkscape.org/) -->

<svg
   width="20.969585mm"
   height="13.832002mm"
   viewBox="0 0 20.969585 13.832002"
   version="1.1"
   id="svg5"
   inkscape:version="1.1.1 (3bf5ae0d25, 2021-09-20)"
   sodipodi:docname="FjordSysConceptIcons.svg"
   xmlns:inkscape="http://www.inkscape.org/namespaces/inkscape"
   xmlns:sodipodi="http://sodipodi.sourceforge.net/DTD/sodipodi-0.dtd"
   xmlns="http://www.w3.org/2000/svg"
   xmlns:svg="http://www.w3.org/2000/svg">
  <sodipodi:namedview
     id="namedview7"
     pagecolor="#ffffff"
     bordercolor="#111111"
     borderopacity="1"
     inkscape:pageshadow="0"
     inkscape:pageopacity="0"
     inkscape:pagecheckerboard="1"
     inkscape:document-units="px"
     showgrid="false"
     inkscape:zoom="1.0824912"
     inkscape:cx="162.58793"
     inkscape:cy="357.97058"
     inkscape:window-width="2400"
     inkscape:window-height="1261"
     inkscape:window-x="2391"
     inkscape:window-y="-8"
     inkscape:window-maximized="1"
     inkscape:current-layer="layer3"
     showguides="true"
     inkscape:showpageshadow="2"
     inkscape:deskcolor="#d1d1d1">
    <inkscape:grid
       type="xygrid"
       id="grid3135"
       originx="-399.84962"
       originy="-116.52761"
       spacingy="1"
       spacingx="1"
       units="px"
       visible="false" />
  </sodipodi:namedview>
  <defs
     id="defs2">
    <marker
       style="overflow:visible"
       id="Arrow1Send-5-40"
       refX="0"
       refY="0"
       orient="auto"
       inkscape:stockid="Arrow1Send"
       inkscape:isstock="true">
      <path
         transform="matrix(-0.2,0,0,-0.2,-1.2,0)"
         style="fill:context-stroke;fill-rule:evenodd;stroke:context-stroke;stroke-width:1pt"
         d="M 0,0 5,-5 -12.5,0 5,5 Z"
         id="path7602-2-2" />
    </marker>
  </defs>
  <g
     inkscape:groupmode="layer"
     id="layer3"
     inkscape:label="TextBoxes"
     style="display:inline"
     transform="translate(-105.79355,-30.831263)">
    <path
       style="display:inline;opacity:0.4;fill:none;fill-opacity:1;stroke:#3d93bd;stroke-width:0.705556;stroke-linecap:butt;stroke-linejoin:miter;stroke-miterlimit:4;stroke-dasharray:0.705556, 0.705556;stroke-dashoffset:0;stroke-opacity:1;marker-end:url(#Arrow1Send-5-40)"
       d="m 118.63991,9 c 0,20.682217 0,20.682217 0,20.682217"
       id="path3484-2-6"
       inkscape:export-filename="C:\Users\mke081\Documents\TheseTRADMOD\WP2_Grazing\03_PAPERS_3.4_NBRSurvey\07_SurveyDataAnalyses\NBRSurvey_TradMod\illustrations\NBR_CancorResults.png"
       inkscape:export-xdpi="122.52628"
       inkscape:export-ydpi="122.52628" />
    <g
       id="g1036-14-1"
       transform="matrix(0.53463596,0,0,0.53463596,76.178603,-74.808566)"
       inkscape:export-filename="C:\Users\mke081\Documents\TheseTRADMOD\WP2_Grazing\03_PAPERS_3.4_NBRSurvey\07_SurveyDataAnalyses\NBRSurvey_TradMod\illustrations\NBR_CancorResults.png"
       inkscape:export-xdpi="122.52628"
       inkscape:export-ydpi="122.52628"
       style="display:inline">
      <rect
         style="fill:#f2f2f2;fill-opacity:1;fill-rule:evenodd;stroke:#c9b239;stroke-width:1.96505;stroke-linejoin:round;stroke-opacity:1"
         id="rect846-3-6-8-3"
         width="37.257133"
         height="23.906767"
         x="56.375259"
         y="198.5746"
         ry="2.185512e-14" />
      <path
         style="fill:none;fill-opacity:1;stroke:#c9b239;stroke-width:1.078;stroke-linecap:butt;stroke-linejoin:miter;stroke-miterlimit:4;stroke-dasharray:none;stroke-opacity:1"
         d="m 82.623154,209.15945 v 5.29996 l 7.664177,0.90521 0.06903,-6.23269 -3.84016,-3.35228 z"
         id="path4406-5-3"
         sodipodi:nodetypes="cccccc" />
      <path
         style="fill:none;stroke:#c9b239;stroke-width:1.6;stroke-linecap:butt;stroke-linejoin:miter;stroke-miterlimit:4;stroke-dasharray:none;stroke-opacity:1"
         d="m 82.010821,209.79055 4.50538,-4.0109 4.39551,3.87354"
         id="path5711-6-2"
         sodipodi:nodetypes="ccc" />
      <rect
         style="fill:#c9b239;fill-opacity:1;fill-rule:evenodd;stroke:none;stroke-width:0.614642;stroke-linejoin:round;stroke-miterlimit:4;stroke-dasharray:none;stroke-opacity:1"
         id="rect6260-2-8"
         width="1.6898563"
         height="2.6647735"
         x="85.687843"
         y="211.85928"
         ry="1.089828e-14" />
      <path
         style="fill:none;stroke:#c9b239;stroke-width:1.465;stroke-linecap:butt;stroke-linejoin:miter;stroke-miterlimit:4;stroke-dasharray:none;stroke-opacity:1"
         d="m 56.510467,217.19216 c 7.284791,-4.45012 30.023092,-4.14532 36.667797,-0.18288"
         id="path50562-2-4"
         sodipodi:nodetypes="cc" />
      <path
         style="fill:#c9b239;fill-opacity:1;stroke:none;stroke-width:0.265;stroke-linecap:butt;stroke-linejoin:miter;stroke-miterlimit:4;stroke-dasharray:none;stroke-opacity:1"
         d="m 70.513433,207.60011 c -0.966822,-0.19352 -1.230097,1.44468 0.42029,1.63263 -0.94168,1.32963 0.96449,1.70267 1.30933,0.98604 -0.14311,0.87125 0.82198,1.84268 1.84277,0.63041 0.26694,1.13983 1.88409,1.04277 2.05291,0.097 0.81789,1.18805 2.24152,0.34085 1.84276,-0.58193 1.28677,0.72837 2.08589,-0.36613 1.22851,-1.09919 1.40854,0.093 1.54127,-1.3558 0.42028,-1.51948 1.29494,-0.81707 0.12255,-1.96589 -0.7759,-1.45481 0.60292,-0.92498 -0.71014,-2.00077 -1.35783,-0.87289 -0.19912,-0.88413 -1.85413,-1.13231 -1.97208,-0.0323 -0.50481,-0.76677 -1.82095,-0.82036 -2.19839,0.19397 -0.50891,-0.58048 -1.52419,-0.7875 -1.5033,0.64659 -0.67892,-0.75974 -2.34775,0.81232 -1.30935,1.37398 z"
         id="path877-4-2-3"
         sodipodi:nodetypes="ccccccccccccccc" />
      <rect
         style="fill:#c9b239;fill-opacity:1;fill-rule:evenodd;stroke:none;stroke-width:0.244491;stroke-linejoin:round;stroke-miterlimit:4;stroke-dasharray:none;stroke-opacity:1"
         id="rect4420-6-8-7"
         width="0.84490383"
         height="2.1615086"
         x="72.653061"
         y="211.4856"
         ry="2.3605724e-14" />
      <rect
         style="fill:#c9b239;fill-opacity:1;fill-rule:evenodd;stroke:none;stroke-width:0.244491;stroke-linejoin:round;stroke-miterlimit:4;stroke-dasharray:none;stroke-opacity:1"
         id="rect4420-9-1-5-9"
         width="0.84490383"
         height="2.1615086"
         x="76.702301"
         y="211.58258"
         ry="2.3605724e-14" />
      <path
         style="fill:#c9b239;fill-opacity:1;stroke:none;stroke-width:0.264583px;stroke-linecap:butt;stroke-linejoin:miter;stroke-opacity:1"
         d="m 70.584124,206.84743 c 0.283861,0.59688 -0.105237,1.7895 -0.654801,1.76066 -0.569479,-0.0299 -0.794897,0.48824 -0.603165,1.06032 -0.307956,0.66331 -0.404256,0.9057 0.01814,2.19186 0.186778,0.74188 0.02175,0.89275 1.045777,0.80039 -0.01099,-1.02386 0.0062,-0.97999 0.394919,-1.84338 0.647509,-0.74542 3.769085,-4.11883 -0.200868,-3.96985 z"
         id="path6850-1-7-9"
         sodipodi:nodetypes="cscccccc" />
      <path
         style="fill:#c9b239;fill-opacity:1;stroke:none;stroke-width:0.136964;stroke-linecap:butt;stroke-linejoin:miter;stroke-miterlimit:4;stroke-dasharray:none;stroke-opacity:1"
         d="m 60.590193,211.57426 c -0.499696,-0.10002 -0.635768,0.74667 0.217224,0.84382 -0.486701,0.68721 0.498491,0.88001 0.676719,0.50963 -0.07396,0.45029 0.424836,0.95237 0.952425,0.32582 0.137966,0.58911 0.97378,0.53895 1.061033,0.0502 0.422722,0.61403 1.158517,0.17616 0.952419,-0.30077 0.66506,0.37645 1.07808,-0.18924 0.634948,-0.56811 0.727995,0.0481 0.796596,-0.70074 0.217219,-0.78534 0.669283,-0.42229 0.06334,-1.01605 -0.401019,-0.7519 0.311616,-0.47808 -0.367031,-1.03409 -0.701786,-0.45115 -0.102914,-0.45696 -0.958295,-0.58523 -1.019257,-0.0167 -0.260908,-0.3963 -0.941147,-0.42399 -1.136224,0.10025 -0.263027,-0.30001 -0.787768,-0.40701 -0.776971,0.33419 -0.350896,-0.39267 -1.213421,0.41984 -0.67673,0.71013 z"
         id="path877-4-8-3-7"
         sodipodi:nodetypes="ccccccccccccccc" />
      <rect
         style="fill:#c9b239;fill-opacity:1;fill-rule:evenodd;stroke:none;stroke-width:0.126364;stroke-linejoin:round;stroke-miterlimit:4;stroke-dasharray:none;stroke-opacity:1"
         id="rect4420-6-1-5-2"
         width="0.43668333"
         height="1.1171623"
         x="61.696041"
         y="213.58244"
         ry="1.2200473e-14" />
      <rect
         style="fill:#c9b239;fill-opacity:1;fill-rule:evenodd;stroke:none;stroke-width:0.126364;stroke-linejoin:round;stroke-miterlimit:4;stroke-dasharray:none;stroke-opacity:1"
         id="rect4420-9-1-7-7-8"
         width="0.43668333"
         height="1.1171623"
         x="63.788868"
         y="213.63258"
         ry="1.2200473e-14" />
      <path
         style="fill:#c9b239;fill-opacity:1;stroke:none;stroke-width:0.136748px;stroke-linecap:butt;stroke-linejoin:miter;stroke-opacity:1"
         d="m 60.626729,211.18524 c 0.146712,0.3085 -0.05439,0.92489 -0.338429,0.90999 -0.294332,-0.0154 -0.410838,0.25234 -0.311743,0.54802 -0.159165,0.34283 -0.208937,0.4681 0.0094,1.13285 0.09654,0.38344 0.01124,0.46141 0.540503,0.41368 -0.0057,-0.52918 0.0032,-0.5065 0.204112,-0.95274 0.334661,-0.38527 1.948029,-2.1288 -0.103817,-2.0518 z"
         id="path6850-1-3-3-7"
         sodipodi:nodetypes="cscccccc" />
    </g>
  </g>
</svg>
