<?xml version="1.0" encoding="UTF-8" standalone="no"?>
<!-- Created with Inkscape (http://www.inkscape.org/) -->

<svg
   width="20.969585mm"
   height="13.831996mm"
   viewBox="0 0 20.969585 13.831996"
   version="1.1"
   id="svg5"
   inkscape:version="1.1.1 (3bf5ae0d25, 2021-09-20)"
   sodipodi:docname="FjordSysConceptIcons.svg"
   xmlns:inkscape="http://www.inkscape.org/namespaces/inkscape"
   xmlns:sodipodi="http://sodipodi.sourceforge.net/DTD/sodipodi-0.dtd"
   xmlns="http://www.w3.org/2000/svg"
   xmlns:svg="http://www.w3.org/2000/svg">
  <sodipodi:namedview
     id="namedview7"
     pagecolor="#ffffff"
     bordercolor="#111111"
     borderopacity="1"
     inkscape:pageshadow="0"
     inkscape:pageopacity="0"
     inkscape:pagecheckerboard="1"
     inkscape:document-units="px"
     showgrid="false"
     inkscape:zoom="1.0824912"
     inkscape:cx="162.58793"
     inkscape:cy="357.97058"
     inkscape:window-width="2400"
     inkscape:window-height="1261"
     inkscape:window-x="2391"
     inkscape:window-y="-8"
     inkscape:window-maximized="1"
     inkscape:current-layer="layer3"
     showguides="true"
     inkscape:showpageshadow="2"
     inkscape:deskcolor="#d1d1d1">
    <inkscape:grid
       type="xygrid"
       id="grid3135"
       originx="-536.69296"
       originy="-333.48146"
       spacingy="1"
       spacingx="1"
       units="px"
       visible="false" />
  </sodipodi:namedview>
  <defs
     id="defs2" />
  <g
     inkscape:groupmode="layer"
     id="layer3"
     inkscape:label="TextBoxes"
     style="display:inline"
     transform="translate(-142.00001,-88.233637)">
    <g
       id="g10702"
       transform="matrix(0.53463596,0,0,0.53463596,125.96092,-56.652718)"
       inkscape:export-filename="C:\Users\mke081\Documents\TheseTRADMOD\WP2_Grazing\03_PAPERS_3.4_NBRSurvey\07_SurveyDataAnalyses\NBRSurvey_TradMod\illustrations\NBR_CancorResults.png"
       inkscape:export-xdpi="122.52628"
       inkscape:export-ydpi="122.52628"
       style="display:inline">
      <rect
         style="fill:#f2f2f2;fill-opacity:1;fill-rule:evenodd;stroke:#000000;stroke-width:1.96505;stroke-linejoin:round;stroke-opacity:1"
         id="rect846-3-6-1-3-5"
         width="37.257133"
         height="23.906767"
         x="30.982525"
         y="271.98254"
         ry="2.185512e-14"
         inkscape:export-filename="C:\Users\mke081\Documents\TheseTRADMOD\WP2_Grazing\03_PAPERS_3.4_NBRSurvey\07_SurveyDataAnalyses\NBRSurvey_TradMod\illustrations\NBR_CancorGrass.png"
         inkscape:export-xdpi="122.526"
         inkscape:export-ydpi="122.526" />
      <g
         id="g10607"
         transform="matrix(0.67687426,0,0,0.67687426,97.272351,265.68662)">
        <path
           style="fill:#000000;fill-opacity:1;stroke:none;stroke-width:1;stroke-linecap:butt;stroke-linejoin:miter;stroke-miterlimit:4;stroke-dasharray:none;stroke-opacity:1"
           d="m -78.460309,24.508615 -4.139336,0.467722 c -1.639735,0.629137 -3.949457,1.174526 -4.303041,1.964432 l 0.09354,1.216075 c 0.444745,0.342996 2.793022,0.685993 4.209497,1.028989 l 4.396583,-0.467723 c 0.652102,-1.516437 -0.515959,-1.512611 -0.298272,-2.151056 0.254386,-0.746074 0.760252,-1.584011 0.04103,-2.058439 z"
           id="path68119"
           sodipodi:nodetypes="ccccccsc" />
        <path
           style="fill:#000000;fill-opacity:1;stroke:none;stroke-width:1;stroke-linecap:butt;stroke-linejoin:miter;stroke-miterlimit:4;stroke-dasharray:none;stroke-opacity:1"
           d="m -77.9688,24.404696 c 0.378562,0.775823 1.113669,1.887152 0.374179,4.583673 l 2.80633,0.654809 c 1.320376,-0.04085 2.655751,-0.0517 3.461139,-1.122532 0.755853,-1.917273 0.440361,-3.783531 -0.65481,-5.61266 -0.699842,-0.48901 -1.457256,-0.936897 -3.367595,-0.561266 z"
           id="path68121"
           sodipodi:nodetypes="ccccccc" />
        <path
           style="fill:#000000;fill-opacity:1;stroke:none;stroke-width:1;stroke-linecap:butt;stroke-linejoin:miter;stroke-miterlimit:4;stroke-dasharray:none;stroke-opacity:1"
           d="m -71.225179,22.880588 c 0.623029,1.434947 0.924301,3.19165 0.841899,5.332028 -2.045521,3.411755 9.029836,2.532213 16.084758,0.826823 3.417147,-1.453408 5.402058,-3.033092 4.011864,-6.856136 l -19.067634,2.661716 18.63866,-3.376997 c -2.429956,-6.807866 -10.094943,-4.396515 -15.237991,-2.544668 -2.63286,0.848456 -7.583914,1.406326 -5.271556,3.957234 z"
           id="path68123"
           sodipodi:nodetypes="cccccccc" />
        <path
           style="fill:#000000;fill-opacity:1;stroke:none;stroke-width:1;stroke-linecap:butt;stroke-linejoin:miter;stroke-miterlimit:4;stroke-dasharray:none;stroke-opacity:1"
           d="m -82.599643,24.976337 -1.145922,-0.912058 -9.30766,-3.57807 h -0.584652"
           id="path68127"
           sodipodi:nodetypes="cccc" />
        <path
           style="display:inline;fill:#000000;fill-opacity:1;stroke:none;stroke-width:1;stroke-linecap:butt;stroke-linejoin:miter;stroke-miterlimit:4;stroke-dasharray:none;stroke-opacity:1"
           d="m -82.599649,29.185833 c -3.08381,2.10697 -7.585807,3.410076 -10.40681,4.583672 l -0.631424,-0.09354"
           id="path68127-3"
           sodipodi:nodetypes="ccc" />
        <path
           style="fill:#000000;fill-opacity:1;stroke:#000000;stroke-width:0.264583px;stroke-linecap:butt;stroke-linejoin:miter;stroke-opacity:1"
           d="m -76.530729,29.699479 -1.190625,1.785938 -0.264583,1.752864 -2.711979,3.340365 2.811198,-2.910417 1.852083,-1.02526 0.496094,-2.315104 z"
           id="path8931" />
        <path
           style="display:inline;fill:#000000;fill-opacity:1;stroke:#000000;stroke-width:0.295923px;stroke-linecap:butt;stroke-linejoin:miter;stroke-opacity:1"
           d="m -74.379885,30.218224 0.08455,2.682952 0.814812,1.969419 -0.234559,5.374326 0.567281,-5.011779 0.897492,-2.398358 -0.95745,-2.708809 z"
           id="path8931-3" />
        <path
           style="display:inline;fill:#000000;fill-opacity:1;stroke:#000000;stroke-width:0.295923px;stroke-linecap:butt;stroke-linejoin:miter;stroke-opacity:1"
           d="m -71.196541,29.061731 1.474942,2.507067 3.275457,1.207848 4.244522,5.756854 -3.146853,-5.473942 -2.517096,-3.46293 -2.517711,-1.384012 z"
           id="path8931-3-2"
           sodipodi:nodetypes="cccccccc" />
        <path
           style="display:inline;fill:#000000;fill-opacity:1;stroke:#000000;stroke-width:0.295923px;stroke-linecap:butt;stroke-linejoin:miter;stroke-opacity:1"
           d="m -71.981962,22.907986 2.787088,-0.832452 1.956256,-2.891467 6.605006,-2.744307 -6.067751,1.746172 -3.964481,1.615718 -1.946058,2.113579 z"
           id="path8931-3-2-4"
           sodipodi:nodetypes="cccccccc" />
        <path
           style="display:inline;fill:#000000;fill-opacity:1;stroke:#000000;stroke-width:0.295923px;stroke-linecap:butt;stroke-linejoin:miter;stroke-opacity:1"
           d="m -75.349557,22.34672 -1.403883,-2.2879 -0.401647,-2.093135 -3.149627,-4.360991 3.228342,3.875247 2.067908,1.510422 0.688842,2.789238 z"
           id="path8931-3-1" />
        <path
           style="display:inline;fill:#000000;fill-opacity:1;stroke:#000000;stroke-width:0.264583px;stroke-linecap:butt;stroke-linejoin:miter;stroke-opacity:1"
           d="m -76.462249,22.810177 -2.145715,0.05542 -1.624121,-0.710469 -4.271838,0.514073 3.960948,-0.827198 1.854686,-1.020543 2.223233,0.814281 z"
           id="path8931-8" />
      </g>
    </g>
  </g>
</svg>
