<?xml version="1.0" encoding="UTF-8" standalone="no"?>
<!-- Created with Inkscape (http://www.inkscape.org/) -->

<svg
   width="20.969593mm"
   height="13.855339mm"
   viewBox="0 0 20.969593 13.855339"
   version="1.1"
   id="svg5"
   inkscape:version="1.1.1 (3bf5ae0d25, 2021-09-20)"
   sodipodi:docname="FjordSysConceptIcons.svg"
   xmlns:inkscape="http://www.inkscape.org/namespaces/inkscape"
   xmlns:sodipodi="http://sodipodi.sourceforge.net/DTD/sodipodi-0.dtd"
   xmlns="http://www.w3.org/2000/svg"
   xmlns:svg="http://www.w3.org/2000/svg">
  <sodipodi:namedview
     id="namedview7"
     pagecolor="#ffffff"
     bordercolor="#111111"
     borderopacity="1"
     inkscape:pageshadow="0"
     inkscape:pageopacity="0"
     inkscape:pagecheckerboard="1"
     inkscape:document-units="px"
     showgrid="false"
     inkscape:zoom="1.0824912"
     inkscape:cx="162.58793"
     inkscape:cy="357.97058"
     inkscape:window-width="2400"
     inkscape:window-height="1261"
     inkscape:window-x="2391"
     inkscape:window-y="-8"
     inkscape:window-maximized="1"
     inkscape:current-layer="layer3"
     showguides="true"
     inkscape:showpageshadow="2"
     inkscape:deskcolor="#d1d1d1">
    <inkscape:grid
       type="xygrid"
       id="grid3135"
       originx="-298.58267"
       originy="-333.48143"
       spacingy="1"
       spacingx="1"
       units="px"
       visible="false" />
  </sodipodi:namedview>
  <defs
     id="defs2">
    <marker
       style="overflow:visible"
       id="Arrow1Send-2-9-2"
       refX="0"
       refY="0"
       orient="auto"
       inkscape:stockid="Arrow1Send"
       inkscape:isstock="true">
      <path
         transform="matrix(-0.2,0,0,-0.2,-1.2,0)"
         style="fill:context-stroke;fill-rule:evenodd;stroke:context-stroke;stroke-width:1pt"
         d="M 0,0 5,-5 -12.5,0 5,5 Z"
         id="path7602-1-8-47" />
    </marker>
    <marker
       style="overflow:visible"
       id="Arrow1Send-2-9-8-2"
       refX="0"
       refY="0"
       orient="auto"
       inkscape:stockid="Arrow1Send"
       inkscape:isstock="true">
      <path
         transform="matrix(-0.2,0,0,-0.2,-1.2,0)"
         style="fill:context-stroke;fill-rule:evenodd;stroke:context-stroke;stroke-width:1pt"
         d="M 0,0 5,-5 -12.5,0 5,5 Z"
         id="path7602-1-8-49-5" />
    </marker>
  </defs>
  <g
     inkscape:groupmode="layer"
     id="layer3"
     inkscape:label="TextBoxes"
     style="display:inline"
     transform="translate(-78.999998,-88.23363)">
    <path
       style="display:inline;opacity:0.4;fill:none;stroke:#3d93bd;stroke-width:1.05833;stroke-linecap:butt;stroke-linejoin:miter;stroke-miterlimit:4;stroke-dasharray:1.05833, 1.05833;stroke-dashoffset:0;stroke-opacity:1;marker-end:url(#Arrow1Send-2-9-2)"
       d="m 68.054903,92.805238 c 9.179769,-0.0089 9.179769,-0.0089 9.179769,-0.0089"
       id="path1142-9-2-3-9"
       sodipodi:nodetypes="cc"
       inkscape:export-filename="C:\Users\mke081\Documents\TheseTRADMOD\WP2_Grazing\03_PAPERS_3.4_NBRSurvey\07_SurveyDataAnalyses\NBRSurvey_TradMod\illustrations\NBR_CancorResults.png"
       inkscape:export-xdpi="122.52628"
       inkscape:export-ydpi="122.52628" />
    <g
       id="g67561"
       transform="matrix(0.53463596,0,0,0.53463596,62.960921,50.809112)"
       inkscape:export-filename="C:\Users\mke081\Documents\TheseTRADMOD\WP2_Grazing\03_PAPERS_3.4_NBRSurvey\07_SurveyDataAnalyses\NBRSurvey_TradMod\illustrations\NBR_CancorResults.png"
       inkscape:export-xdpi="122.52628"
       inkscape:export-ydpi="122.52628"
       style="display:inline">
      <rect
         style="fill:#f2f2f2;fill-opacity:1;fill-rule:evenodd;stroke:#000000;stroke-width:1.96505;stroke-linejoin:round;stroke-opacity:1"
         id="rect846-3-6-1-3-3"
         width="37.257133"
         height="23.906767"
         x="30.982525"
         y="70.982529"
         ry="2.185512e-14"
         inkscape:export-filename="C:\Users\mke081\Documents\TheseTRADMOD\WP2_Grazing\03_PAPERS_3.4_NBRSurvey\07_SurveyDataAnalyses\NBRSurvey_TradMod\illustrations\NBR_CancorGrass.png"
         inkscape:export-xdpi="122.526"
         inkscape:export-ydpi="122.526" />
      <g
         id="g67346"
         transform="matrix(0.47416498,0,0,0.47416498,87.49878,59.75361)">
        <ellipse
           style="fill:#000000;fill-opacity:1;fill-rule:evenodd;stroke:#0b0000;stroke-width:0.304387;stroke-linejoin:round;stroke-miterlimit:4;stroke-dasharray:none;stroke-opacity:1"
           id="path60534"
           cx="-83.297585"
           cy="43.473053"
           rx="1.1059824"
           ry="0.99208778" />
        <path
           style="fill:#000000;fill-opacity:1;stroke:#0b0000;stroke-width:0.304387;stroke-linecap:butt;stroke-linejoin:miter;stroke-miterlimit:4;stroke-dasharray:none;stroke-opacity:1"
           d="m -84.094839,41.593793 c -1.55858,-2.299552 -3.13404,-4.588819 -3.4738,-7.630957 0.86521,-2.000819 2.16263,-2.5609 3.4738,-3.075161 0.98124,0.12325 1.79012,0.52227 2.39179,1.252843 1.55241,-0.832086 2.81761,-0.132325 4.15716,0.170842 0.42877,1.7663 -0.39334,3.428361 -0.79726,5.12527 -1.36674,2.11948 -2.73348,3.285928 -4.10022,4.783584 z"
           id="path60682"
           sodipodi:nodetypes="cccccccc" />
        <path
           style="display:inline;fill:#000000;fill-opacity:1;stroke:#0b0000;stroke-width:0.304387;stroke-linecap:butt;stroke-linejoin:miter;stroke-miterlimit:4;stroke-dasharray:none;stroke-opacity:1"
           d="m -81.273219,42.452111 c 1.56113,-2.25045 3.00611,-4.553697 5.36955,-6.439456 1.95997,-0.129561 3.13589,0.81004 4.27743,1.79653 0.9083,1.097152 0.40812,1.897781 -0.0917,2.698496 1.81247,1.0556 2.02749,2.386622 1.6489,3.81999 -1.53898,1.253341 -3.28617,1.153357 -4.96398,1.504285 -2.87384,-1.565295 -4.16596,-1.209942 -6.0885,-1.620086 z"
           id="path60682-4"
           sodipodi:nodetypes="cccccccc" />
        <path
           style="display:inline;fill:#000000;fill-opacity:1;stroke:#0b0000;stroke-width:0.304387;stroke-linecap:butt;stroke-linejoin:miter;stroke-miterlimit:4;stroke-dasharray:none;stroke-opacity:1"
           d="m -81.121479,44.21187 c 2.68501,0.736183 5.1829,1.940185 7.26255,4.18977 0.7053,1.191707 -0.28986,2.893551 -1.03891,4.521562 -1.25728,1.342989 -1.82322,0.381503 -2.67445,0.370974 0.17239,1.965275 -2.24058,1.59141 -3.4819,2.277615 -1.98161,0.479318 -2.21212,-1.983189 -2.33068,-4.633782 0.0555,-2.091939 0.0607,-4.183879 0.55548,-6.275818 z"
           id="path60682-5"
           sodipodi:nodetypes="cccccccc" />
        <path
           style="display:inline;fill:#000000;fill-opacity:1;stroke:#0b0000;stroke-width:0.304387;stroke-linecap:butt;stroke-linejoin:miter;stroke-miterlimit:4;stroke-dasharray:none;stroke-opacity:1"
           d="m -84.014459,46.017309 c 0.61448,2.540388 -0.30225,5.931166 -1.61055,8.228294 -2.45962,1.850215 -3.47559,1.053727 -4.61426,0.482198 -0.6289,-0.736401 -1.32284,-1.453294 -1.21752,-2.409962 -2.37509,-0.322048 -3.09616,-1.32852 -3.28293,-2.556078 0.78078,-1.625229 2.01272,-2.840324 3.62861,-3.706367 l 6.11723,-1.507953 z"
           id="path60682-3"
           sodipodi:nodetypes="cccccccc" />
        <path
           style="display:inline;fill:#000000;fill-opacity:1;stroke:#0b0000;stroke-width:0.304387;stroke-linecap:butt;stroke-linejoin:miter;stroke-miterlimit:4;stroke-dasharray:none;stroke-opacity:1"
           d="m -84.993879,44.547441 c -2.79383,0.05227 -5.51875,0.931437 -8.38336,0.13429 -0.93994,-0.255274 -2.16564,-0.09398 -1.43043,-4.413358 0.0632,-0.829834 1.17244,-1.223833 2.10438,-1.6917 -0.77047,-1.389419 -0.53746,-3.773821 1.81816,-3.742393 1.12193,-0.179352 2.42838,0.245159 4.37944,2.779305 l 2.74609,5.670399 z"
           id="path60682-9"
           sodipodi:nodetypes="cccccccc" />
      </g>
      <g
         id="g67346-1"
         style="display:inline"
         transform="matrix(0.15796331,0.27992706,-0.27992706,0.15796331,86.130352,97.383545)">
        <ellipse
           style="fill:#000000;fill-opacity:1;fill-rule:evenodd;stroke:#0b0000;stroke-width:0.304387;stroke-linejoin:round;stroke-miterlimit:4;stroke-dasharray:none;stroke-opacity:1"
           id="path60534-1"
           cx="-83.297585"
           cy="43.473053"
           rx="1.1059824"
           ry="0.99208778" />
        <path
           style="fill:#000000;fill-opacity:1;stroke:#0b0000;stroke-width:0.304387;stroke-linecap:butt;stroke-linejoin:miter;stroke-miterlimit:4;stroke-dasharray:none;stroke-opacity:1"
           d="m -84.094839,41.593793 c -1.55858,-2.299552 -3.13404,-4.588819 -3.4738,-7.630957 0.86521,-2.000819 2.16263,-2.5609 3.4738,-3.075161 0.98124,0.12325 1.79012,0.52227 2.39179,1.252843 1.55241,-0.832086 2.81761,-0.132325 4.15716,0.170842 0.42877,1.7663 -0.39334,3.428361 -0.79726,5.12527 -1.36674,2.11948 -2.73348,3.285928 -4.10022,4.783584 z"
           id="path60682-0"
           sodipodi:nodetypes="cccccccc" />
        <path
           style="display:inline;fill:#000000;fill-opacity:1;stroke:#0b0000;stroke-width:0.304387;stroke-linecap:butt;stroke-linejoin:miter;stroke-miterlimit:4;stroke-dasharray:none;stroke-opacity:1"
           d="m -81.273219,42.452111 c 1.56113,-2.25045 3.00611,-4.553697 5.36955,-6.439456 1.95997,-0.129561 3.13589,0.81004 4.27743,1.79653 0.9083,1.097152 0.40812,1.897781 -0.0917,2.698496 1.81247,1.0556 2.02749,2.386622 1.6489,3.81999 -1.53898,1.253341 -3.28617,1.153357 -4.96398,1.504285 -2.87384,-1.565295 -4.16596,-1.209942 -6.0885,-1.620086 z"
           id="path60682-4-6"
           sodipodi:nodetypes="cccccccc" />
        <path
           style="display:inline;fill:#000000;fill-opacity:1;stroke:#0b0000;stroke-width:0.304387;stroke-linecap:butt;stroke-linejoin:miter;stroke-miterlimit:4;stroke-dasharray:none;stroke-opacity:1"
           d="m -81.121479,44.21187 c 2.68501,0.736183 5.1829,1.940185 7.26255,4.18977 0.7053,1.191707 -0.28986,2.893551 -1.03891,4.521562 -1.25728,1.342989 -1.82322,0.381503 -2.67445,0.370974 0.17239,1.965275 -2.24058,1.59141 -3.4819,2.277615 -1.98161,0.479318 -2.21212,-1.983189 -2.33068,-4.633782 0.0555,-2.091939 0.0607,-4.183879 0.55548,-6.275818 z"
           id="path60682-5-6"
           sodipodi:nodetypes="cccccccc" />
        <path
           style="display:inline;fill:#000000;fill-opacity:1;stroke:#0b0000;stroke-width:0.304387;stroke-linecap:butt;stroke-linejoin:miter;stroke-miterlimit:4;stroke-dasharray:none;stroke-opacity:1"
           d="m -84.014459,46.017309 c 0.61448,2.540388 -0.30225,5.931166 -1.61055,8.228294 -2.45962,1.850215 -3.47559,1.053727 -4.61426,0.482198 -0.6289,-0.736401 -1.32284,-1.453294 -1.21752,-2.409962 -2.37509,-0.322048 -3.09616,-1.32852 -3.28293,-2.556078 0.78078,-1.625229 2.01272,-2.840324 3.62861,-3.706367 l 6.11723,-1.507953 z"
           id="path60682-3-4"
           sodipodi:nodetypes="cccccccc" />
        <path
           style="display:inline;fill:#000000;fill-opacity:1;stroke:#0b0000;stroke-width:0.304387;stroke-linecap:butt;stroke-linejoin:miter;stroke-miterlimit:4;stroke-dasharray:none;stroke-opacity:1"
           d="m -84.993879,44.547441 c -2.79383,0.05227 -5.51875,0.931437 -8.38336,0.13429 -0.93994,-0.255274 -2.16564,-0.09398 -1.43043,-4.413358 0.0632,-0.829834 1.17244,-1.223833 2.10438,-1.6917 -0.77047,-1.389419 -0.53746,-3.773821 1.81816,-3.742393 1.12193,-0.179352 2.42838,0.245159 4.37944,2.779305 l 2.74609,5.670399 z"
           id="path60682-9-2"
           sodipodi:nodetypes="cccccccc" />
      </g>
      <g
         id="g67346-1-2"
         style="display:inline"
         transform="matrix(-0.25598617,0.19437758,-0.19437758,-0.25598617,24.32368,111.56852)">
        <ellipse
           style="fill:#000000;fill-opacity:1;fill-rule:evenodd;stroke:#0b0000;stroke-width:0.304387;stroke-linejoin:round;stroke-miterlimit:4;stroke-dasharray:none;stroke-opacity:1"
           id="path60534-1-2"
           cx="-83.297585"
           cy="43.473053"
           rx="1.1059824"
           ry="0.99208778" />
        <path
           style="fill:#000000;fill-opacity:1;stroke:#0b0000;stroke-width:0.304387;stroke-linecap:butt;stroke-linejoin:miter;stroke-miterlimit:4;stroke-dasharray:none;stroke-opacity:1"
           d="m -84.094839,41.593793 c -1.55858,-2.299552 -3.13404,-4.588819 -3.4738,-7.630957 0.86521,-2.000819 2.16263,-2.5609 3.4738,-3.075161 0.98124,0.12325 1.79012,0.52227 2.39179,1.252843 1.55241,-0.832086 2.81761,-0.132325 4.15716,0.170842 0.42877,1.7663 -0.39334,3.428361 -0.79726,5.12527 -1.36674,2.11948 -2.73348,3.285928 -4.10022,4.783584 z"
           id="path60682-0-5"
           sodipodi:nodetypes="cccccccc" />
        <path
           style="display:inline;fill:#000000;fill-opacity:1;stroke:#0b0000;stroke-width:0.304387;stroke-linecap:butt;stroke-linejoin:miter;stroke-miterlimit:4;stroke-dasharray:none;stroke-opacity:1"
           d="m -81.273219,42.452111 c 1.56113,-2.25045 3.00611,-4.553697 5.36955,-6.439456 1.95997,-0.129561 3.13589,0.81004 4.27743,1.79653 0.9083,1.097152 0.40812,1.897781 -0.0917,2.698496 1.81247,1.0556 2.02749,2.386622 1.6489,3.81999 -1.53898,1.253341 -3.28617,1.153357 -4.96398,1.504285 -2.87384,-1.565295 -4.16596,-1.209942 -6.0885,-1.620086 z"
           id="path60682-4-6-9"
           sodipodi:nodetypes="cccccccc" />
        <path
           style="display:inline;fill:#000000;fill-opacity:1;stroke:#0b0000;stroke-width:0.304387;stroke-linecap:butt;stroke-linejoin:miter;stroke-miterlimit:4;stroke-dasharray:none;stroke-opacity:1"
           d="m -81.121479,44.21187 c 2.68501,0.736183 5.1829,1.940185 7.26255,4.18977 0.7053,1.191707 -0.28986,2.893551 -1.03891,4.521562 -1.25728,1.342989 -1.82322,0.381503 -2.67445,0.370974 0.17239,1.965275 -2.24058,1.59141 -3.4819,2.277615 -1.98161,0.479318 -2.21212,-1.983189 -2.33068,-4.633782 0.0555,-2.091939 0.0607,-4.183879 0.55548,-6.275818 z"
           id="path60682-5-6-4"
           sodipodi:nodetypes="cccccccc" />
        <path
           style="display:inline;fill:#000000;fill-opacity:1;stroke:#0b0000;stroke-width:0.304387;stroke-linecap:butt;stroke-linejoin:miter;stroke-miterlimit:4;stroke-dasharray:none;stroke-opacity:1"
           d="m -84.014459,46.017309 c 0.61448,2.540388 -0.30225,5.931166 -1.61055,8.228294 -2.45962,1.850215 -3.47559,1.053727 -4.61426,0.482198 -0.6289,-0.736401 -1.32284,-1.453294 -1.21752,-2.409962 -2.37509,-0.322048 -3.09616,-1.32852 -3.28293,-2.556078 0.78078,-1.625229 2.01272,-2.840324 3.62861,-3.706367 l 6.11723,-1.507953 z"
           id="path60682-3-4-8"
           sodipodi:nodetypes="cccccccc" />
        <path
           style="display:inline;fill:#000000;fill-opacity:1;stroke:#0b0000;stroke-width:0.304387;stroke-linecap:butt;stroke-linejoin:miter;stroke-miterlimit:4;stroke-dasharray:none;stroke-opacity:1"
           d="m -84.993879,44.547441 c -2.79383,0.05227 -5.51875,0.931437 -8.38336,0.13429 -0.93994,-0.255274 -2.16564,-0.09398 -1.43043,-4.413358 0.0632,-0.829834 1.17244,-1.223833 2.10438,-1.6917 -0.77047,-1.389419 -0.53746,-3.773821 1.81816,-3.742393 1.12193,-0.179352 2.42838,0.245159 4.37944,2.779305 l 2.74609,5.670399 z"
           id="path60682-9-2-1"
           sodipodi:nodetypes="cccccccc" />
      </g>
      <path
         style="fill:#000000;fill-opacity:1;stroke:#000000;stroke-width:0.10042px;stroke-linecap:butt;stroke-linejoin:miter;stroke-opacity:1"
         d="m 47.949169,83.913174 c -0.409244,1.776208 0.446709,4.79699 1.645816,6.81028 0.743498,1.756495 1.2672,3.818474 1.621011,5.009819 l 0.928608,0.119985 C 50.457505,92.658152 48.036069,85.474106 47.949169,83.913174 Z"
         id="path65295"
         sodipodi:nodetypes="ccccc" />
      <path
         style="display:inline;fill:#000000;fill-opacity:1;stroke:#000000;stroke-width:0.0789763px;stroke-linecap:butt;stroke-linejoin:miter;stroke-opacity:1"
         d="m 61.410381,81.339546 c -0.683448,1.965619 -1.033675,5.467539 -0.938146,7.865907 -0.07503,2.061447 -0.34579,4.445643 -0.475418,5.828403 l 0.454221,0.23076 c -0.03863,-3.784107 0.592396,-12.151931 0.959343,-13.92507 z"
         id="path65295-7"
         sodipodi:nodetypes="ccccc" />
      <path
         style="display:inline;fill:#000000;fill-opacity:1;stroke:#000000;stroke-width:0.0721938px;stroke-linecap:butt;stroke-linejoin:miter;stroke-opacity:1"
         d="m 38.482613,84.470744 c 0.610388,1.874107 2.313885,4.770445 3.718783,6.582943 1.095923,1.638058 2.232761,3.626446 2.911556,4.765667 l 0.451252,-0.05267 c -2.137012,-2.916921 -6.353719,-9.732686 -7.081591,-11.29594 z"
         id="path65295-7-1"
         sodipodi:nodetypes="ccccc" />
    </g>
    <path
       style="display:inline;fill:none;stroke:#ad6e51;stroke-width:1.41111;stroke-linecap:butt;stroke-linejoin:miter;stroke-miterlimit:4;stroke-dasharray:none;stroke-opacity:1;marker-end:url(#Arrow1Send-2-9-8-2)"
       d="m 68.027559,97.78593 c 8.671171,0.0096 8.671171,0.0096 8.671171,0.0096"
       id="path1142-9-2-3-4-4"
       sodipodi:nodetypes="cc"
       inkscape:export-filename="C:\Users\mke081\Documents\TheseTRADMOD\WP2_Grazing\03_PAPERS_3.4_NBRSurvey\07_SurveyDataAnalyses\NBRSurvey_TradMod\illustrations\NBR_CancorResults.png"
       inkscape:export-xdpi="122.52628"
       inkscape:export-ydpi="122.52628" />
  </g>
</svg>
