<?xml version="1.0" encoding="UTF-8" standalone="no"?>
<!-- Created with Inkscape (http://www.inkscape.org/) -->

<svg
   width="20.969589mm"
   height="13.832004mm"
   viewBox="0 0 20.969589 13.832004"
   version="1.1"
   id="svg5"
   inkscape:version="1.1.1 (3bf5ae0d25, 2021-09-20)"
   sodipodi:docname="FjordSysConceptIcons.svg"
   xmlns:inkscape="http://www.inkscape.org/namespaces/inkscape"
   xmlns:sodipodi="http://sodipodi.sourceforge.net/DTD/sodipodi-0.dtd"
   xmlns="http://www.w3.org/2000/svg"
   xmlns:svg="http://www.w3.org/2000/svg">
  <sodipodi:namedview
     id="namedview7"
     pagecolor="#ffffff"
     bordercolor="#111111"
     borderopacity="1"
     inkscape:pageshadow="0"
     inkscape:pageopacity="0"
     inkscape:pagecheckerboard="1"
     inkscape:document-units="px"
     showgrid="false"
     inkscape:zoom="1.0824912"
     inkscape:cx="162.58793"
     inkscape:cy="357.97058"
     inkscape:window-width="2400"
     inkscape:window-height="1261"
     inkscape:window-x="2391"
     inkscape:window-y="-8"
     inkscape:window-maximized="1"
     inkscape:current-layer="layer3"
     showguides="true"
     inkscape:showpageshadow="2"
     inkscape:deskcolor="#d1d1d1">
    <inkscape:grid
       type="xygrid"
       id="grid3135"
       originx="-60.472446"
       originy="-333.48184"
       spacingy="1"
       spacingx="1"
       units="px"
       visible="false" />
  </sodipodi:namedview>
  <defs
     id="defs2">
    <clipPath
       clipPathUnits="userSpaceOnUse"
       id="clipPath31499">
      <rect
         style="fill:#f2f2f2;fill-opacity:1;fill-rule:evenodd;stroke:#000000;stroke-width:2.58353;stroke-linejoin:round;stroke-opacity:1"
         id="rect31501"
         width="48.983547"
         height="31.43125"
         x="28.495142"
         y="223.02098"
         ry="2.8733861e-14"
         inkscape:export-filename="C:\Users\mke081\Documents\TheseTRADMOD\WP2_Grazing\03_PAPERS_3.4_NBRSurvey\07_SurveyDataAnalyses\NBRSurvey_TradMod\illustrations\NBR_CancorGrass.png"
         inkscape:export-xdpi="122.526"
         inkscape:export-ydpi="122.526" />
    </clipPath>
    <clipPath
       clipPathUnits="userSpaceOnUse"
       id="clipPath31503">
      <rect
         style="fill:#f2f2f2;fill-opacity:1;fill-rule:evenodd;stroke:#000000;stroke-width:2.58353;stroke-linejoin:round;stroke-opacity:1"
         id="rect31505"
         width="48.983547"
         height="31.43125"
         x="42.44212"
         y="217.18604"
         ry="2.8733861e-14"
         inkscape:export-filename="C:\Users\mke081\Documents\TheseTRADMOD\WP2_Grazing\03_PAPERS_3.4_NBRSurvey\07_SurveyDataAnalyses\NBRSurvey_TradMod\illustrations\NBR_CancorGrass.png"
         inkscape:export-xdpi="122.526"
         inkscape:export-ydpi="122.526" />
    </clipPath>
    <clipPath
       clipPathUnits="userSpaceOnUse"
       id="clipPath31507">
      <rect
         style="fill:#f2f2f2;fill-opacity:1;fill-rule:evenodd;stroke:#000000;stroke-width:2.58353;stroke-linejoin:round;stroke-opacity:1"
         id="rect31509"
         width="48.983547"
         height="31.43125"
         x="1.4473532"
         y="195.8922"
         ry="2.8733861e-14"
         inkscape:export-filename="C:\Users\mke081\Documents\TheseTRADMOD\WP2_Grazing\03_PAPERS_3.4_NBRSurvey\07_SurveyDataAnalyses\NBRSurvey_TradMod\illustrations\NBR_CancorGrass.png"
         inkscape:export-xdpi="122.526"
         inkscape:export-ydpi="122.526" />
    </clipPath>
    <marker
       style="overflow:visible"
       id="Arrow1Send-2-9-8"
       refX="0"
       refY="0"
       orient="auto"
       inkscape:stockid="Arrow1Send"
       inkscape:isstock="true">
      <path
         transform="matrix(-0.2,0,0,-0.2,-1.2,0)"
         style="fill:context-stroke;fill-rule:evenodd;stroke:context-stroke;stroke-width:1pt"
         d="M 0,0 5,-5 -12.5,0 5,5 Z"
         id="path7602-1-8-49" />
    </marker>
    <marker
       style="overflow:visible"
       id="Arrow1Send-2-9-8-4"
       refX="0"
       refY="0"
       orient="auto"
       inkscape:stockid="Arrow1Send"
       inkscape:isstock="true">
      <path
         transform="matrix(-0.2,0,0,-0.2,-1.2,0)"
         style="fill:context-stroke;fill-rule:evenodd;stroke:context-stroke;stroke-width:1pt"
         d="M 0,0 5,-5 -12.5,0 5,5 Z"
         id="path7602-1-8-49-8" />
    </marker>
  </defs>
  <g
     inkscape:groupmode="layer"
     id="layer3"
     inkscape:label="TextBoxes"
     style="display:inline"
     transform="translate(-16.000001,-88.233736)">
    <g
       id="g31555"
       transform="matrix(0.53463596,0,0,0.53463596,-16.291568,-20.835918)"
       style="display:inline"
       inkscape:export-filename="C:\Users\mke081\Documents\TheseTRADMOD\WP2_Grazing\03_PAPERS_3.4_NBRSurvey\07_SurveyDataAnalyses\NBRSurvey_TradMod\illustrations\NBR_CancorResults.png"
       inkscape:export-xdpi="122.52628"
       inkscape:export-ydpi="122.52628">
      <rect
         style="fill:#f2f2f2;fill-opacity:1;fill-rule:evenodd;stroke:#000000;stroke-width:1.96505;stroke-linejoin:round;stroke-opacity:1"
         id="rect846-3-6-1-3-1-2"
         width="37.257133"
         height="23.906767"
         x="61.381695"
         y="204.98985"
         ry="2.185512e-14"
         inkscape:export-filename="C:\Users\mke081\Documents\TheseTRADMOD\WP2_Grazing\03_PAPERS_3.4_NBRSurvey\07_SurveyDataAnalyses\NBRSurvey_TradMod\illustrations\NBR_CancorGrass.png"
         inkscape:export-xdpi="122.526"
         inkscape:export-ydpi="122.526" />
      <g
         id="g30325"
         transform="matrix(0.76060507,0,0,0.76060507,60.28083,56.291807)"
         clip-path="url(#clipPath31507)">
        <path
           style="fill:#000000;fill-opacity:1;stroke:none;stroke-width:0.0317642px;stroke-linecap:butt;stroke-linejoin:miter;stroke-opacity:1"
           d="m 24.748742,197.84947 c -0.121318,0.68119 -0.06771,1.32789 0.04774,1.96239 0.08281,0.25402 0.177259,0.48108 0.323848,0.58739 0.182392,-0.40729 0.233605,-0.87122 0.269061,-1.34196 -0.129007,-0.54624 -0.35869,-0.92144 -0.640645,-1.20782 z"
           id="path27408"
           sodipodi:nodetypes="ccccc" />
        <path
           style="fill:#000000;fill-opacity:1;stroke:none;stroke-width:0.0317642px;stroke-linecap:butt;stroke-linejoin:miter;stroke-opacity:1"
           d="m 24.457575,199.75598 c -0.121318,0.68119 -0.06771,1.32789 0.04774,1.9624 0.08281,0.25401 0.177259,0.48107 0.323849,0.58738 0.182393,-0.40729 0.233604,-0.87122 0.269061,-1.34196 -0.129007,-0.54624 -0.358691,-0.92143 -0.640646,-1.20782 z"
           id="path27408-5"
           sodipodi:nodetypes="ccccc" />
        <path
           style="fill:#000000;fill-opacity:1;stroke:none;stroke-width:0.0317642px;stroke-linecap:butt;stroke-linejoin:miter;stroke-opacity:1"
           d="m 24.091875,201.41264 c -0.121317,0.68119 -0.06771,1.32788 0.04774,1.96239 0.08281,0.25402 0.177258,0.48108 0.323848,0.58739 0.182392,-0.40729 0.233605,-0.87123 0.269062,-1.34196 -0.129008,-0.54625 -0.358692,-0.92144 -0.640647,-1.20782 z"
           id="path27408-6"
           sodipodi:nodetypes="ccccc" />
        <path
           style="fill:#000000;fill-opacity:1;stroke:none;stroke-width:0.0317642px;stroke-linecap:butt;stroke-linejoin:miter;stroke-opacity:1"
           d="m 26.811346,197.72948 c -0.167278,0.67138 -0.48018,1.23988 -0.844552,1.772 -0.179277,0.1981 -0.358177,0.36683 -0.535392,0.40405 -2.68e-4,-0.44626 0.142339,-0.8907 0.302106,-1.33491 0.340729,-0.44601 0.703548,-0.69479 1.077838,-0.84114 z"
           id="path27408-8"
           sodipodi:nodetypes="ccccc" />
        <path
           style="fill:#000000;fill-opacity:1;stroke:none;stroke-width:0.0317642px;stroke-linecap:butt;stroke-linejoin:miter;stroke-opacity:1"
           d="m 26.512477,199.47369 c -0.167282,0.67138 -0.48018,1.23988 -0.844551,1.772 -0.179278,0.1981 -0.358179,0.36683 -0.535394,0.40405 -2.68e-4,-0.44626 0.142339,-0.89069 0.302107,-1.33491 0.340729,-0.44601 0.703547,-0.69479 1.077836,-0.84114 z"
           id="path27408-8-3"
           sodipodi:nodetypes="ccccc" />
        <path
           style="fill:#000000;fill-opacity:1;stroke:none;stroke-width:0.0317642px;stroke-linecap:butt;stroke-linejoin:miter;stroke-opacity:1"
           d="m 26.150983,201.16789 c -0.167283,0.67138 -0.480181,1.23988 -0.844552,1.772 -0.179278,0.1981 -0.35818,0.36684 -0.535393,0.40405 -2.69e-4,-0.44626 0.142339,-0.89069 0.302106,-1.3349 0.340729,-0.44602 0.703546,-0.69479 1.077837,-0.84115 z"
           id="path27408-8-2"
           sodipodi:nodetypes="ccccc" />
        <path
           style="fill:#000000;fill-opacity:1;stroke:none;stroke-width:0.0317642px;stroke-linecap:butt;stroke-linejoin:miter;stroke-opacity:1"
           d="m 23.60254,203.22132 c -0.121318,0.68119 -0.06771,1.32788 0.04774,1.96239 0.08281,0.25402 0.177259,0.48108 0.323849,0.58738 0.182391,-0.40728 0.233604,-0.87122 0.269061,-1.34195 -0.129008,-0.54625 -0.358691,-0.92144 -0.640646,-1.20782 z"
           id="path27408-1"
           sodipodi:nodetypes="ccccc" />
        <path
           style="fill:#000000;fill-opacity:1;stroke:none;stroke-width:0.0317642px;stroke-linecap:butt;stroke-linejoin:miter;stroke-opacity:1"
           d="m 23.311373,205.12783 c -0.121318,0.68119 -0.06771,1.32789 0.04774,1.96239 0.08281,0.25402 0.17726,0.48108 0.323849,0.58739 0.182393,-0.40729 0.233604,-0.87122 0.269061,-1.34196 -0.129007,-0.54624 -0.358691,-0.92144 -0.640646,-1.20782 z"
           id="path27408-5-0"
           sodipodi:nodetypes="ccccc" />
        <path
           style="fill:#000000;fill-opacity:1;stroke:none;stroke-width:0.0317642px;stroke-linecap:butt;stroke-linejoin:miter;stroke-opacity:1"
           d="m 22.945673,206.78449 c -0.121317,0.68118 -0.06771,1.32788 0.04774,1.96239 0.08281,0.25401 0.17726,0.48108 0.323849,0.58739 0.182392,-0.40729 0.233605,-0.87123 0.269062,-1.34197 -0.129007,-0.54624 -0.358691,-0.92143 -0.640647,-1.20781 z"
           id="path27408-6-9"
           sodipodi:nodetypes="ccccc" />
        <path
           style="fill:#000000;fill-opacity:1;stroke:none;stroke-width:0.0317642px;stroke-linecap:butt;stroke-linejoin:miter;stroke-opacity:1"
           d="m 25.665145,203.10133 c -0.167279,0.67138 -0.480181,1.23988 -0.844552,1.772 -0.179277,0.19809 -0.358178,0.36683 -0.535393,0.40405 -2.68e-4,-0.44627 0.142339,-0.8907 0.302106,-1.33491 0.340729,-0.44602 0.703548,-0.69479 1.077837,-0.84114 z"
           id="path27408-8-0"
           sodipodi:nodetypes="ccccc" />
        <path
           style="fill:#000000;fill-opacity:1;stroke:none;stroke-width:0.0317642px;stroke-linecap:butt;stroke-linejoin:miter;stroke-opacity:1"
           d="m 25.366276,204.84554 c -0.167283,0.67138 -0.48018,1.23987 -0.844552,1.772 -0.179278,0.1981 -0.358179,0.36683 -0.535394,0.40405 -2.68e-4,-0.44626 0.14234,-0.89069 0.302108,-1.33491 0.340729,-0.44602 0.703546,-0.69478 1.077835,-0.84114 z"
           id="path27408-8-3-0"
           sodipodi:nodetypes="ccccc" />
        <path
           style="fill:#000000;fill-opacity:1;stroke:none;stroke-width:0.0317642px;stroke-linecap:butt;stroke-linejoin:miter;stroke-opacity:1"
           d="m 25.004781,206.53974 c -0.167283,0.67138 -0.480181,1.23987 -0.844552,1.772 -0.179278,0.1981 -0.358179,0.36683 -0.535393,0.40405 -2.69e-4,-0.44626 0.142339,-0.8907 0.302106,-1.33491 0.340729,-0.44602 0.703547,-0.69478 1.077837,-0.84114 z"
           id="path27408-8-2-9"
           sodipodi:nodetypes="ccccc" />
        <path
           style="fill:#000000;fill-opacity:1;stroke:none;stroke-width:0.125105px;stroke-linecap:butt;stroke-linejoin:miter;stroke-opacity:1"
           d="m 23.317259,209.33427 -4.217908,24.70582 -0.987577,2.60717 c 0.852222,-0.43143 2.347316,-0.61 2.621308,-1.71152 2.530786,-10.17445 20.951873,-28.53179 26.834997,-30.19164 -11.359317,5.48944 -19.073524,13.19329 -27.30989,27.8576 0.336635,-8.13924 2.333409,-15.41197 3.05907,-23.26743 z"
           id="path27895"
           sodipodi:nodetypes="cccsccc" />
      </g>
      <g
         id="g31497"
         transform="matrix(0.76060507,0,0,0.76060507,29.100004,40.095607)"
         clip-path="url(#clipPath31503)">
        <g
           id="g30325-3"
           transform="matrix(-0.80822021,0,0,0.80822021,73.74484,66.677999)">
          <path
             style="fill:#000000;fill-opacity:1;stroke:none;stroke-width:0.0317642px;stroke-linecap:butt;stroke-linejoin:miter;stroke-opacity:1"
             d="m 24.748742,197.84947 c -0.121318,0.68119 -0.06771,1.32789 0.04774,1.96239 0.08281,0.25402 0.177259,0.48108 0.323848,0.58739 0.182392,-0.40729 0.233605,-0.87122 0.269061,-1.34196 -0.129007,-0.54624 -0.35869,-0.92144 -0.640645,-1.20782 z"
             id="path27408-18"
             sodipodi:nodetypes="ccccc" />
          <path
             style="fill:#000000;fill-opacity:1;stroke:none;stroke-width:0.0317642px;stroke-linecap:butt;stroke-linejoin:miter;stroke-opacity:1"
             d="m 24.457575,199.75598 c -0.121318,0.68119 -0.06771,1.32789 0.04774,1.9624 0.08281,0.25401 0.177259,0.48107 0.323849,0.58738 0.182393,-0.40729 0.233604,-0.87122 0.269061,-1.34196 -0.129007,-0.54624 -0.358691,-0.92143 -0.640646,-1.20782 z"
             id="path27408-5-00"
             sodipodi:nodetypes="ccccc" />
          <path
             style="fill:#000000;fill-opacity:1;stroke:none;stroke-width:0.0317642px;stroke-linecap:butt;stroke-linejoin:miter;stroke-opacity:1"
             d="m 24.091875,201.41264 c -0.121317,0.68119 -0.06771,1.32788 0.04774,1.96239 0.08281,0.25402 0.177258,0.48108 0.323848,0.58739 0.182392,-0.40729 0.233605,-0.87123 0.269062,-1.34196 -0.129008,-0.54625 -0.358692,-0.92144 -0.640647,-1.20782 z"
             id="path27408-6-95"
             sodipodi:nodetypes="ccccc" />
          <path
             style="fill:#000000;fill-opacity:1;stroke:none;stroke-width:0.0317642px;stroke-linecap:butt;stroke-linejoin:miter;stroke-opacity:1"
             d="m 26.811346,197.72948 c -0.167278,0.67138 -0.48018,1.23988 -0.844552,1.772 -0.179277,0.1981 -0.358177,0.36683 -0.535392,0.40405 -2.68e-4,-0.44626 0.142339,-0.8907 0.302106,-1.33491 0.340729,-0.44601 0.703548,-0.69479 1.077838,-0.84114 z"
             id="path27408-8-6"
             sodipodi:nodetypes="ccccc" />
          <path
             style="fill:#000000;fill-opacity:1;stroke:none;stroke-width:0.0317642px;stroke-linecap:butt;stroke-linejoin:miter;stroke-opacity:1"
             d="m 26.512477,199.47369 c -0.167282,0.67138 -0.48018,1.23988 -0.844551,1.772 -0.179278,0.1981 -0.358179,0.36683 -0.535394,0.40405 -2.68e-4,-0.44626 0.142339,-0.89069 0.302107,-1.33491 0.340729,-0.44601 0.703547,-0.69479 1.077836,-0.84114 z"
             id="path27408-8-3-1"
             sodipodi:nodetypes="ccccc" />
          <path
             style="fill:#000000;fill-opacity:1;stroke:none;stroke-width:0.0317642px;stroke-linecap:butt;stroke-linejoin:miter;stroke-opacity:1"
             d="m 26.150983,201.16789 c -0.167283,0.67138 -0.480181,1.23988 -0.844552,1.772 -0.179278,0.1981 -0.35818,0.36684 -0.535393,0.40405 -2.69e-4,-0.44626 0.142339,-0.89069 0.302106,-1.3349 0.340729,-0.44602 0.703546,-0.69479 1.077837,-0.84115 z"
             id="path27408-8-2-8"
             sodipodi:nodetypes="ccccc" />
          <path
             style="fill:#000000;fill-opacity:1;stroke:none;stroke-width:0.0317642px;stroke-linecap:butt;stroke-linejoin:miter;stroke-opacity:1"
             d="m 23.60254,203.22132 c -0.121318,0.68119 -0.06771,1.32788 0.04774,1.96239 0.08281,0.25402 0.177259,0.48108 0.323849,0.58738 0.182391,-0.40728 0.233604,-0.87122 0.269061,-1.34195 -0.129008,-0.54625 -0.358691,-0.92144 -0.640646,-1.20782 z"
             id="path27408-1-0"
             sodipodi:nodetypes="ccccc" />
          <path
             style="fill:#000000;fill-opacity:1;stroke:none;stroke-width:0.0317642px;stroke-linecap:butt;stroke-linejoin:miter;stroke-opacity:1"
             d="m 23.311373,205.12783 c -0.121318,0.68119 -0.06771,1.32789 0.04774,1.96239 0.08281,0.25402 0.17726,0.48108 0.323849,0.58739 0.182393,-0.40729 0.233604,-0.87122 0.269061,-1.34196 -0.129007,-0.54624 -0.358691,-0.92144 -0.640646,-1.20782 z"
             id="path27408-5-0-3"
             sodipodi:nodetypes="ccccc" />
          <path
             style="fill:#000000;fill-opacity:1;stroke:none;stroke-width:0.0317642px;stroke-linecap:butt;stroke-linejoin:miter;stroke-opacity:1"
             d="m 22.945673,206.78449 c -0.121317,0.68118 -0.06771,1.32788 0.04774,1.96239 0.08281,0.25401 0.17726,0.48108 0.323849,0.58739 0.182392,-0.40729 0.233605,-0.87123 0.269062,-1.34197 -0.129007,-0.54624 -0.358691,-0.92143 -0.640647,-1.20781 z"
             id="path27408-6-9-7"
             sodipodi:nodetypes="ccccc" />
          <path
             style="fill:#000000;fill-opacity:1;stroke:none;stroke-width:0.0317642px;stroke-linecap:butt;stroke-linejoin:miter;stroke-opacity:1"
             d="m 25.665145,203.10133 c -0.167279,0.67138 -0.480181,1.23988 -0.844552,1.772 -0.179277,0.19809 -0.358178,0.36683 -0.535393,0.40405 -2.68e-4,-0.44627 0.142339,-0.8907 0.302106,-1.33491 0.340729,-0.44602 0.703548,-0.69479 1.077837,-0.84114 z"
             id="path27408-8-0-2"
             sodipodi:nodetypes="ccccc" />
          <path
             style="fill:#000000;fill-opacity:1;stroke:none;stroke-width:0.0317642px;stroke-linecap:butt;stroke-linejoin:miter;stroke-opacity:1"
             d="m 25.366276,204.84554 c -0.167283,0.67138 -0.48018,1.23987 -0.844552,1.772 -0.179278,0.1981 -0.358179,0.36683 -0.535394,0.40405 -2.68e-4,-0.44626 0.14234,-0.89069 0.302108,-1.33491 0.340729,-0.44602 0.703546,-0.69478 1.077835,-0.84114 z"
             id="path27408-8-3-0-8"
             sodipodi:nodetypes="ccccc" />
          <path
             style="fill:#000000;fill-opacity:1;stroke:none;stroke-width:0.0317642px;stroke-linecap:butt;stroke-linejoin:miter;stroke-opacity:1"
             d="m 25.004781,206.53974 c -0.167283,0.67138 -0.480181,1.23987 -0.844552,1.772 -0.179278,0.1981 -0.358179,0.36683 -0.535393,0.40405 -2.69e-4,-0.44626 0.142339,-0.8907 0.302106,-1.33491 0.340729,-0.44602 0.703547,-0.69478 1.077837,-0.84114 z"
             id="path27408-8-2-9-1"
             sodipodi:nodetypes="ccccc" />
          <path
             style="fill:#000000;fill-opacity:1;stroke:none;stroke-width:0.125105px;stroke-linecap:butt;stroke-linejoin:miter;stroke-opacity:1"
             d="m 23.317259,209.33427 -4.217908,24.70582 -0.987577,2.60717 c 0.852222,-0.43143 2.245937,-0.6403 2.621308,-1.71152 3.392688,-9.68193 5.807021,-22.00596 11.690145,-23.66581 -9.697077,6.28978 -5.159961,6.29807 -12.165038,21.33177 0.336635,-8.13924 2.333409,-15.41197 3.05907,-23.26743 z"
             id="path27895-9"
             sodipodi:nodetypes="cccsccc" />
        </g>
      </g>
      <g
         id="g31003"
         transform="matrix(0.76060507,0,0,0.76060507,39.708145,35.657512)"
         clip-path="url(#clipPath31499)">
        <path
           style="fill:#000000;fill-opacity:1;stroke:none;stroke-width:0.0247195px;stroke-linecap:butt;stroke-linejoin:miter;stroke-opacity:1"
           d="m 43.900292,234.40478 c 0.04825,0.53629 0.220795,1.0109 0.437276,1.4637 0.114141,0.17379 0.231506,0.32496 0.36332,0.3748 0.05363,-0.34313 -0.0028,-0.70195 -0.07249,-1.06266 -0.208606,-0.38376 -0.457816,-0.61849 -0.728106,-0.77584 z"
           id="path27408-0"
           sodipodi:nodetypes="ccccc" />
        <path
           style="fill:#000000;fill-opacity:1;stroke:none;stroke-width:0.0247195px;stroke-linecap:butt;stroke-linejoin:miter;stroke-opacity:1"
           d="m 44.071668,235.89585 c 0.04825,0.53628 0.220796,1.0109 0.437278,1.4637 0.114139,0.17379 0.231504,0.32496 0.363318,0.37479 0.05363,-0.34312 -0.0028,-0.70194 -0.07249,-1.06265 -0.208605,-0.38376 -0.457813,-0.61849 -0.728106,-0.77584 z"
           id="path27408-5-6"
           sodipodi:nodetypes="ccccc" />
        <path
           style="fill:#000000;fill-opacity:1;stroke:none;stroke-width:0.0247195px;stroke-linecap:butt;stroke-linejoin:miter;stroke-opacity:1"
           d="m 44.135971,237.21456 c 0.04826,0.53629 0.220793,1.01089 0.437276,1.4637 0.11414,0.17379 0.231505,0.32496 0.363319,0.3748 0.05363,-0.34313 -0.0028,-0.70195 -0.07249,-1.06266 -0.208608,-0.38376 -0.457816,-0.61849 -0.728105,-0.77584 z"
           id="path27408-6-4"
           sodipodi:nodetypes="ccccc" />
        <path
           style="fill:#000000;fill-opacity:1;stroke:none;stroke-width:0.0247195px;stroke-linecap:butt;stroke-linejoin:miter;stroke-opacity:1"
           d="m 45.424458,233.89275 c 0.01174,0.53833 -0.106913,1.0292 -0.271651,1.50328 -0.09409,0.18542 -0.193898,0.3487 -0.319347,0.4129 -0.09149,-0.33502 -0.07533,-0.6979 -0.04623,-1.06412 0.164601,-0.40459 0.386133,-0.6656 0.637233,-0.85206 z"
           id="path27408-8-5"
           sodipodi:nodetypes="ccccc" />
        <path
           style="fill:#000000;fill-opacity:1;stroke:none;stroke-width:0.0247195px;stroke-linecap:butt;stroke-linejoin:miter;stroke-opacity:1"
           d="m 45.55685,235.26354 c 0.01174,0.53832 -0.106912,1.02918 -0.27165,1.50327 -0.09409,0.18542 -0.193899,0.3487 -0.319348,0.4129 -0.09149,-0.33502 -0.07532,-0.69789 -0.04623,-1.06412 0.1646,-0.40458 0.386133,-0.6656 0.63723,-0.85205 z"
           id="path27408-8-3-5"
           sodipodi:nodetypes="ccccc" />
        <path
           style="fill:#000000;fill-opacity:1;stroke:none;stroke-width:0.0247195px;stroke-linecap:butt;stroke-linejoin:miter;stroke-opacity:1"
           d="m 45.63199,236.60958 c 0.01174,0.53832 -0.106912,1.02919 -0.27165,1.50327 -0.09409,0.18541 -0.193899,0.34872 -0.319348,0.4129 -0.09149,-0.33502 -0.07532,-0.69789 -0.04623,-1.06411 0.164598,-0.4046 0.386131,-0.6656 0.637228,-0.85206 z"
           id="path27408-8-2-5"
           sodipodi:nodetypes="ccccc" />
        <path
           style="fill:#000000;fill-opacity:1;stroke:none;stroke-width:0.0247195px;stroke-linecap:butt;stroke-linejoin:miter;stroke-opacity:1"
           d="m 44.13854,238.67271 c 0.04825,0.5363 0.220793,1.01089 0.437276,1.4637 0.11414,0.17379 0.231506,0.32496 0.363317,0.37479 0.05363,-0.34312 -0.0028,-0.70195 -0.07248,-1.06264 -0.208608,-0.38377 -0.457815,-0.61849 -0.728105,-0.77585 z"
           id="path27408-1-7"
           sodipodi:nodetypes="ccccc" />
        <path
           style="fill:#000000;fill-opacity:1;stroke:none;stroke-width:0.0247195px;stroke-linecap:butt;stroke-linejoin:miter;stroke-opacity:1"
           d="m 44.309915,240.16378 c 0.04825,0.53629 0.220796,1.01091 0.437276,1.4637 0.114141,0.1738 0.231507,0.32496 0.363321,0.37479 0.05363,-0.34312 -0.0028,-0.70193 -0.07249,-1.06265 -0.208606,-0.38375 -0.457816,-0.61848 -0.728107,-0.77584 z"
           id="path27408-5-0-6"
           sodipodi:nodetypes="ccccc" />
        <path
           style="fill:#000000;fill-opacity:1;stroke:none;stroke-width:0.0247195px;stroke-linecap:butt;stroke-linejoin:miter;stroke-opacity:1"
           d="m 44.374218,241.48249 c 0.04825,0.53629 0.220794,1.0109 0.437276,1.46371 0.114139,0.17378 0.231507,0.32495 0.36332,0.37479 0.05363,-0.34312 -0.0028,-0.70195 -0.07249,-1.06266 -0.208604,-0.38375 -0.457813,-0.61848 -0.728103,-0.77584 z"
           id="path27408-6-9-71"
           sodipodi:nodetypes="ccccc" />
        <path
           style="fill:#000000;fill-opacity:1;stroke:none;stroke-width:0.0247195px;stroke-linecap:butt;stroke-linejoin:miter;stroke-opacity:1"
           d="m 45.662706,238.16069 c 0.01173,0.53833 -0.106913,1.0292 -0.27165,1.50327 -0.09409,0.18541 -0.1939,0.3487 -0.319348,0.41291 -0.09149,-0.33503 -0.07533,-0.69791 -0.04623,-1.06412 0.164598,-0.4046 0.386133,-0.66561 0.637231,-0.85206 z"
           id="path27408-8-0-1"
           sodipodi:nodetypes="ccccc" />
        <path
           style="fill:#000000;fill-opacity:1;stroke:none;stroke-width:0.0247195px;stroke-linecap:butt;stroke-linejoin:miter;stroke-opacity:1"
           d="m 45.795098,239.53147 c 0.01174,0.53832 -0.106914,1.02919 -0.27165,1.50327 -0.09409,0.18542 -0.1939,0.34871 -0.319348,0.41291 -0.09149,-0.33503 -0.07532,-0.6979 -0.04623,-1.06412 0.164598,-0.4046 0.386133,-0.6656 0.637228,-0.85206 z"
           id="path27408-8-3-0-80"
           sodipodi:nodetypes="ccccc" />
        <path
           style="fill:#000000;fill-opacity:1;stroke:none;stroke-width:0.0247195px;stroke-linecap:butt;stroke-linejoin:miter;stroke-opacity:1"
           d="m 45.870237,240.87751 c 0.01174,0.53833 -0.106915,1.02918 -0.27165,1.50327 -0.09409,0.18542 -0.1939,0.34871 -0.319347,0.4129 -0.09149,-0.33501 -0.07533,-0.69789 -0.04623,-1.06411 0.164598,-0.40459 0.386134,-0.6656 0.63723,-0.85205 z"
           id="path27408-8-2-9-3"
           sodipodi:nodetypes="ccccc" />
        <path
           style="fill:#000000;fill-opacity:1;stroke:none;stroke-width:0.125105px;stroke-linecap:butt;stroke-linejoin:miter;stroke-opacity:1"
           d="m 45.174814,243.32099 0.972324,17.84789 -0.359214,2.76471 c 0.729647,-0.61646 2.307344,-1.1454 2.155546,-2.27028 -1.340583,-9.93421 1.801875,-27.34729 8.321494,-30.95756 -7.295506,9.62225 -9.14576,12.6092 -9.322234,28.79613 -1.550889,-7.99721 -0.661045,-8.37003 -1.767916,-16.18089 z"
           id="path27895-8"
           sodipodi:nodetypes="cccsccc" />
      </g>
    </g>
    <path
       style="display:inline;fill:none;stroke:#ad6e51;stroke-width:1.41111;stroke-linecap:butt;stroke-linejoin:miter;stroke-miterlimit:4;stroke-dasharray:none;stroke-opacity:1;marker-end:url(#Arrow1Send-2-9-8)"
       d="m 5.000813,97.786011 c 8.505125,0.0098 8.505125,0.0098 8.505125,0.0098"
       id="path1142-9-2-3-4"
       sodipodi:nodetypes="cc"
       inkscape:export-filename="C:\Users\mke081\Documents\TheseTRADMOD\WP2_Grazing\03_PAPERS_3.4_NBRSurvey\07_SurveyDataAnalyses\NBRSurvey_TradMod\illustrations\NBR_CancorResults.png"
       inkscape:export-xdpi="122.52628"
       inkscape:export-ydpi="122.52628" />
    <path
       style="display:inline;opacity:1;fill:none;stroke:#c9b239;stroke-width:1.41111;stroke-linecap:butt;stroke-linejoin:miter;stroke-miterlimit:4;stroke-dasharray:none;stroke-opacity:1;marker-end:url(#Arrow1Send-2-9-8-4)"
       d="m 48.43072,97.786028 c -8.952407,0.0094 -8.952407,0.0094 -8.952407,0.0094"
       id="path1142-9-2-3-4-9"
       sodipodi:nodetypes="cc"
       inkscape:export-filename="C:\Users\mke081\Documents\TheseTRADMOD\WP2_Grazing\03_PAPERS_3.4_NBRSurvey\07_SurveyDataAnalyses\NBRSurvey_TradMod\illustrations\NBR_CancorResults.png"
       inkscape:export-xdpi="122.52628"
       inkscape:export-ydpi="122.52628" />
  </g>
</svg>
